  0
SECTION
  2
BLOCKS
  0
ENDSEC
  0
SECTION
  2
ENTITIES
  0
LINE
  8
0
 10
24.5
 20
18
 11
25
 21
18
  0
LINE
  8
0
 10
25
 20
18
 11
25
 21
17.5
  0
LINE
  8
0
 10
25
 20
17.5
 11
24.5
 21
17.5
  0
LINE
  8
0
 10
24.5
 20
17.5
 11
24.5
 21
17
  0
LINE
  8
0
 10
24.5
 20
17
 11
25
 21
17
  0
LINE
  8
0
 10
25
 20
17
 11
25
 21
16.5
  0
LINE
  8
0
 10
25
 20
16.5
 11
24.5
 21
16.5
  0
LINE
  8
0
 10
24.5
 20
16.5
 11
24.5
 21
16
  0
LINE
  8
0
 10
24.5
 20
16
 11
25
 21
16
  0
LINE
  8
0
 10
25
 20
16
 11
25
 21
15.5
  0
LINE
  8
0
 10
25
 20
15.5
 11
24.5
 21
15.5
  0
LINE
  8
0
 10
24.5
 20
15.5
 11
24.5
 21
15
  0
LINE
  8
0
 10
24.5
 20
15
 11
25
 21
15
  0
LINE
  8
0
 10
25
 20
15
 11
25
 21
14.5
  0
LINE
  8
0
 10
25
 20
14.5
 11
24.5
 21
14.5
  0
LINE
  8
0
 10
24.5
 20
14.5
 11
24.5
 21
14
  0
LINE
  8
0
 10
24.5
 20
14
 11
25
 21
14
  0
LINE
  8
0
 10
25
 20
14
 11
25
 21
13.5
  0
LINE
  8
0
 10
25
 20
13.5
 11
24.5
 21
13.5
  0
LINE
  8
0
 10
24.5
 20
13.5
 11
24.5
 21
13
  0
LINE
  8
0
 10
24.5
 20
13
 11
25
 21
13
  0
LINE
  8
0
 10
25
 20
13
 11
25
 21
12.5
  0
LINE
  8
0
 10
25
 20
12.5
 11
24.5
 21
12.5
  0
LINE
  8
0
 10
24.5
 20
12.5
 11
24.5
 21
12
  0
LINE
  8
0
 10
24.5
 20
12
 11
25.5
 21
12
  0
LINE
  8
0
 10
25.5
 20
12
 11
25.5
 21
12.5
  0
LINE
  8
0
 10
25.5
 20
12.5
 11
26
 21
12.5
  0
LINE
  8
0
 10
26
 20
12.5
 11
26
 21
12
  0
LINE
  8
0
 10
26
 20
12
 11
26.5
 21
12
  0
LINE
  8
0
 10
26.5
 20
12
 11
26.5
 21
12.5
  0
LINE
  8
0
 10
26.5
 20
12.5
 11
27
 21
12.5
  0
LINE
  8
0
 10
27
 20
12.5
 11
27
 21
12
  0
LINE
  8
0
 10
27
 20
12
 11
27.5
 21
12
  0
LINE
  8
0
 10
27.5
 20
12
 11
27.5
 21
12.5
  0
LINE
  8
0
 10
27.5
 20
12.5
 11
28
 21
12.5
  0
LINE
  8
0
 10
28
 20
12.5
 11
28
 21
12
  0
LINE
  8
0
 10
28
 20
12
 11
28.5
 21
12
  0
LINE
  8
0
 10
28.5
 20
12
 11
28.5
 21
12.5
  0
LINE
  8
0
 10
28.5
 20
12.5
 11
29
 21
12.5
  0
LINE
  8
0
 10
29
 20
12.5
 11
29
 21
12
  0
LINE
  8
0
 10
29
 20
12
 11
29.5
 21
12
  0
LINE
  8
0
 10
29.5
 20
12
 11
29.5
 21
12.5
  0
LINE
  8
0
 10
29.5
 20
12.5
 11
30
 21
12.5
  0
LINE
  8
0
 10
30
 20
12.5
 11
30
 21
12
  0
LINE
  8
0
 10
30
 20
12
 11
30.5
 21
12
  0
LINE
  8
0
 10
30.5
 20
12
 11
30.5
 21
12.5
  0
LINE
  8
0
 10
30.5
 20
12.5
 11
31
 21
12.5
  0
LINE
  8
0
 10
31
 20
12.5
 11
31
 21
12
  0
LINE
  8
0
 10
31
 20
12
 11
31.5
 21
12
  0
LINE
  8
0
 10
31.5
 20
12
 11
31.5
 21
12.5
  0
LINE
  8
0
 10
31.5
 20
12.5
 11
32
 21
12.5
  0
LINE
  8
0
 10
32
 20
12.5
 11
32
 21
12
  0
LINE
  8
0
 10
32
 20
12
 11
32.5
 21
12
  0
LINE
  8
0
 10
32.5
 20
12
 11
32.5
 21
13
  0
LINE
  8
0
 10
32.5
 20
13
 11
32
 21
13
  0
LINE
  8
0
 10
32
 20
13
 11
32
 21
13.5
  0
LINE
  8
0
 10
32
 20
13.5
 11
32.5
 21
13.5
  0
LINE
  8
0
 10
32.5
 20
13.5
 11
32.5
 21
14
  0
LINE
  8
0
 10
32.5
 20
14
 11
32
 21
14
  0
LINE
  8
0
 10
32
 20
14
 11
32
 21
14.5
  0
LINE
  8
0
 10
32
 20
14.5
 11
32.5
 21
14.5
  0
LINE
  8
0
 10
32.5
 20
14.5
 11
32.5
 21
15
  0
LINE
  8
0
 10
32.5
 20
15
 11
32
 21
15
  0
LINE
  8
0
 10
32
 20
15
 11
32
 21
15.5
  0
LINE
  8
0
 10
32
 20
15.5
 11
32.5
 21
15.5
  0
LINE
  8
0
 10
32.5
 20
15.5
 11
32.5
 21
16
  0
LINE
  8
0
 10
32.5
 20
16
 11
32
 21
16
  0
LINE
  8
0
 10
32
 20
16
 11
32
 21
16.5
  0
LINE
  8
0
 10
32
 20
16.5
 11
32.5
 21
16.5
  0
LINE
  8
0
 10
32.5
 20
16.5
 11
32.5
 21
17
  0
LINE
  8
0
 10
32.5
 20
17
 11
32
 21
17
  0
LINE
  8
0
 10
32
 20
17
 11
32
 21
17.5
  0
LINE
  8
0
 10
32
 20
17.5
 11
32.5
 21
17.5
  0
LINE
  8
0
 10
32.5
 20
17.5
 11
32.5
 21
18
  0
LINE
  8
0
 10
32.5
 20
18
 11
32
 21
18
  0
LINE
  8
0
 10
32
 20
18
 11
32
 21
18.5
  0
LINE
  8
0
 10
32
 20
18.5
 11
32.5
 21
18.5
  0
LINE
  8
0
 10
32.5
 20
18.5
 11
32.5
 21
19
  0
LINE
  8
0
 10
32.5
 20
19
 11
32
 21
19
  0
LINE
  8
0
 10
32
 20
19
 11
32
 21
19.5
  0
LINE
  8
0
 10
32
 20
19.5
 11
32.5
 21
19.5
  0
LINE
  8
0
 10
32.5
 20
19.5
 11
32.5
 21
20
  0
LINE
  8
0
 10
32.5
 20
20
 11
32
 21
20
  0
LINE
  8
0
 10
32
 20
20
 11
32
 21
20.5
  0
LINE
  8
0
 10
32
 20
20.5
 11
32.5
 21
20.5
  0
LINE
  8
0
 10
32.5
 20
20.5
 11
32.5
 21
21
  0
LINE
  8
0
 10
32.5
 20
21
 11
32
 21
21
  0
LINE
  8
0
 10
32
 20
21
 11
32
 21
21.5
  0
LINE
  8
0
 10
32
 20
21.5
 11
32.5
 21
21.5
  0
LINE
  8
0
 10
32.5
 20
21.5
 11
32.5
 21
22
  0
LINE
  8
0
 10
32.5
 20
22
 11
32
 21
22
  0
LINE
  8
0
 10
32
 20
22
 11
32
 21
22.5
  0
LINE
  8
0
 10
32
 20
22.5
 11
32.5
 21
22.5
  0
LINE
  8
0
 10
32.5
 20
22.5
 11
32.5
 21
23
  0
LINE
  8
0
 10
32.5
 20
23
 11
32
 21
23
  0
LINE
  8
0
 10
32
 20
23
 11
32
 21
23.5
  0
LINE
  8
0
 10
32
 20
23.5
 11
32.5
 21
23.5
  0
LINE
  8
0
 10
32.5
 20
23.5
 11
32.5
 21
24
  0
LINE
  8
0
 10
32.5
 20
24
 11
31.5
 21
24
  0
LINE
  8
0
 10
31.5
 20
24
 11
31.5
 21
23.5
  0
LINE
  8
0
 10
31.5
 20
23.5
 11
31
 21
23.5
  0
LINE
  8
0
 10
31
 20
23.5
 11
31
 21
24
  0
LINE
  8
0
 10
31
 20
24
 11
30.5
 21
24
  0
LINE
  8
0
 10
30.5
 20
24
 11
30.5
 21
23.5
  0
LINE
  8
0
 10
30.5
 20
23.5
 11
30
 21
23.5
  0
LINE
  8
0
 10
30
 20
23.5
 11
30
 21
24
  0
LINE
  8
0
 10
30
 20
24
 11
29.5
 21
24
  0
LINE
  8
0
 10
29.5
 20
24
 11
29.5
 21
23.5
  0
LINE
  8
0
 10
29.5
 20
23.5
 11
29
 21
23.5
  0
LINE
  8
0
 10
29
 20
23.5
 11
29
 21
24
  0
LINE
  8
0
 10
29
 20
24
 11
28.5
 21
24
  0
LINE
  8
0
 10
28.5
 20
24
 11
28.5
 21
23.5
  0
LINE
  8
0
 10
28.5
 20
23.5
 11
28
 21
23.5
  0
LINE
  8
0
 10
28
 20
23.5
 11
28
 21
24
  0
LINE
  8
0
 10
28
 20
24
 11
27.5
 21
24
  0
LINE
  8
0
 10
27.5
 20
24
 11
27.5
 21
23.5
  0
LINE
  8
0
 10
27.5
 20
23.5
 11
27
 21
23.5
  0
LINE
  8
0
 10
27
 20
23.5
 11
27
 21
24
  0
LINE
  8
0
 10
27
 20
24
 11
26.5
 21
24
  0
LINE
  8
0
 10
26.5
 20
24
 11
26.5
 21
23.5
  0
LINE
  8
0
 10
26.5
 20
23.5
 11
26
 21
23.5
  0
LINE
  8
0
 10
26
 20
23.5
 11
26
 21
24
  0
LINE
  8
0
 10
26
 20
24
 11
25.5
 21
24
  0
LINE
  8
0
 10
25.5
 20
24
 11
25.5
 21
23.5
  0
LINE
  8
0
 10
25.5
 20
23.5
 11
25
 21
23.5
  0
LINE
  8
0
 10
25
 20
23.5
 11
25
 21
24
  0
LINE
  8
0
 10
25
 20
24
 11
24.5
 21
24
  0
LINE
  8
0
 10
24.5
 20
24
 11
24.5
 21
23
  0
LINE
  8
0
 10
24.5
 20
23
 11
25
 21
23
  0
LINE
  8
0
 10
25
 20
23
 11
25
 21
22.5
  0
LINE
  8
0
 10
25
 20
22.5
 11
24.5
 21
22.5
  0
LINE
  8
0
 10
24.5
 20
22.5
 11
24.5
 21
22
  0
LINE
  8
0
 10
24.5
 20
22
 11
25
 21
22
  0
LINE
  8
0
 10
25
 20
22
 11
25
 21
21.5
  0
LINE
  8
0
 10
25
 20
21.5
 11
24.5
 21
21.5
  0
LINE
  8
0
 10
24.5
 20
21.5
 11
24.5
 21
21
  0
LINE
  8
0
 10
24.5
 20
21
 11
25
 21
21
  0
LINE
  8
0
 10
25
 20
21
 11
25
 21
20.5
  0
LINE
  8
0
 10
25
 20
20.5
 11
24.5
 21
20.5
  0
LINE
  8
0
 10
24.5
 20
20.5
 11
24.5
 21
20
  0
LINE
  8
0
 10
24.5
 20
20
 11
25
 21
20
  0
LINE
  8
0
 10
25
 20
20
 11
25
 21
19.5
  0
LINE
  8
0
 10
25
 20
19.5
 11
24.5
 21
19.5
  0
LINE
  8
0
 10
24.5
 20
19.5
 11
24.5
 21
19
  0
LINE
  8
0
 10
24.5
 20
19
 11
25
 21
19
  0
LINE
  8
0
 10
25
 20
19
 11
25
 21
18.5
  0
LINE
  8
0
 10
25
 20
18.5
 11
24.5
 21
18.5
  0
LINE
  8
0
 10
24.5
 20
18.5
 11
24.5
 21
18
  0
LINE
  8
0
 10
8
 20
12
 11
8.5
 21
12
  0
LINE
  8
0
 10
8.5
 20
12
 11
8.5
 21
12.5
  0
LINE
  8
0
 10
8.5
 20
12.5
 11
9
 21
12.5
  0
LINE
  8
0
 10
9
 20
12.5
 11
9
 21
12
  0
LINE
  8
0
 10
9
 20
12
 11
9.5
 21
12
  0
LINE
  8
0
 10
9.5
 20
12
 11
9.5
 21
12.5
  0
LINE
  8
0
 10
9.5
 20
12.5
 11
10
 21
12.5
  0
LINE
  8
0
 10
10
 20
12.5
 11
10
 21
12
  0
LINE
  8
0
 10
10
 20
12
 11
10.5
 21
12
  0
LINE
  8
0
 10
10.5
 20
12
 11
10.5
 21
12.5
  0
LINE
  8
0
 10
10.5
 20
12.5
 11
11.5
 21
12.5
  0
LINE
  8
0
 10
11.5
 20
12.5
 11
11.5
 21
13
  0
LINE
  8
0
 10
11.5
 20
13
 11
11
 21
13
  0
LINE
  8
0
 10
11
 20
13
 11
11
 21
13.5
  0
LINE
  8
0
 10
11
 20
13.5
 11
11.5
 21
13.5
  0
LINE
  8
0
 10
11.5
 20
13.5
 11
11.5
 21
14
  0
LINE
  8
0
 10
11.5
 20
14
 11
11
 21
14
  0
LINE
  8
0
 10
11
 20
14
 11
11
 21
14.5
  0
LINE
  8
0
 10
11
 20
14.5
 11
11.5
 21
14.5
  0
LINE
  8
0
 10
11.5
 20
14.5
 11
11.5
 21
15
  0
LINE
  8
0
 10
11.5
 20
15
 11
11
 21
15
  0
LINE
  8
0
 10
11
 20
15
 11
11
 21
15.5
  0
LINE
  8
0
 10
11
 20
15.5
 11
11.5
 21
15.5
  0
LINE
  8
0
 10
11.5
 20
15.5
 11
11.5
 21
16
  0
LINE
  8
0
 10
11.5
 20
16
 11
11
 21
16
  0
LINE
  8
0
 10
11
 20
16
 11
11
 21
16.5
  0
LINE
  8
0
 10
11
 20
16.5
 11
11.5
 21
16.5
  0
LINE
  8
0
 10
11.5
 20
16.5
 11
11.5
 21
17
  0
LINE
  8
0
 10
11.5
 20
17
 11
11
 21
17
  0
LINE
  8
0
 10
11
 20
17
 11
11
 21
17.5
  0
LINE
  8
0
 10
11
 20
17.5
 11
11.5
 21
17.5
  0
LINE
  8
0
 10
11.5
 20
17.5
 11
11.5
 21
18
  0
LINE
  8
0
 10
11.5
 20
18
 11
11
 21
18
  0
LINE
  8
0
 10
11
 20
18
 11
11
 21
18.5
  0
LINE
  8
0
 10
11
 20
18.5
 11
11.5
 21
18.5
  0
LINE
  8
0
 10
11.5
 20
18.5
 11
11.5
 21
19
  0
LINE
  8
0
 10
11.5
 20
19
 11
11
 21
19
  0
LINE
  8
0
 10
11
 20
19
 11
11
 21
19.5
  0
LINE
  8
0
 10
11
 20
19.5
 11
11.5
 21
19.5
  0
LINE
  8
0
 10
11.5
 20
19.5
 11
11.5
 21
20
  0
LINE
  8
0
 10
11.5
 20
20
 11
11
 21
20
  0
LINE
  8
0
 10
11
 20
20
 11
11
 21
20.5
  0
LINE
  8
0
 10
11
 20
20.5
 11
11.5
 21
20.5
  0
LINE
  8
0
 10
11.5
 20
20.5
 11
11.5
 21
21
  0
LINE
  8
0
 10
11.5
 20
21
 11
11
 21
21
  0
LINE
  8
0
 10
11
 20
21
 11
11
 21
21.5
  0
LINE
  8
0
 10
11
 20
21.5
 11
11.5
 21
21.5
  0
LINE
  8
0
 10
11.5
 20
21.5
 11
11.5
 21
22
  0
LINE
  8
0
 10
11.5
 20
22
 11
11
 21
22
  0
LINE
  8
0
 10
11
 20
22
 11
11
 21
22.5
  0
LINE
  8
0
 10
11
 20
22.5
 11
11.5
 21
22.5
  0
LINE
  8
0
 10
11.5
 20
22.5
 11
11.5
 21
23
  0
LINE
  8
0
 10
11.5
 20
23
 11
11
 21
23
  0
LINE
  8
0
 10
11
 20
23
 11
11
 21
23.5
  0
LINE
  8
0
 10
11
 20
23.5
 11
10.5
 21
23.5
  0
LINE
  8
0
 10
10.5
 20
23.5
 11
10.5
 21
24
  0
LINE
  8
0
 10
10.5
 20
24
 11
10
 21
24
  0
LINE
  8
0
 10
10
 20
24
 11
10
 21
23.5
  0
LINE
  8
0
 10
10
 20
23.5
 11
9.5
 21
23.5
  0
LINE
  8
0
 10
9.5
 20
23.5
 11
9.5
 21
24
  0
LINE
  8
0
 10
9.5
 20
24
 11
9
 21
24
  0
LINE
  8
0
 10
9
 20
24
 11
9
 21
23.5
  0
LINE
  8
0
 10
9
 20
23.5
 11
8.5
 21
23.5
  0
LINE
  8
0
 10
8.5
 20
23.5
 11
8.5
 21
24
  0
LINE
  8
0
 10
8.5
 20
24
 11
8
 21
24
  0
LINE
  8
0
 10
8
 20
24
 11
8
 21
23.5
  0
LINE
  8
0
 10
8
 20
23.5
 11
7.5
 21
23.5
  0
LINE
  8
0
 10
7.5
 20
23.5
 11
7.5
 21
24
  0
LINE
  8
0
 10
7.5
 20
24
 11
7
 21
24
  0
LINE
  8
0
 10
7
 20
24
 11
7
 21
23.5
  0
LINE
  8
0
 10
7
 20
23.5
 11
6.5
 21
23.5
  0
LINE
  8
0
 10
6.5
 20
23.5
 11
6.5
 21
24
  0
LINE
  8
0
 10
6.5
 20
24
 11
6
 21
24
  0
LINE
  8
0
 10
6
 20
24
 11
6
 21
23.5
  0
LINE
  8
0
 10
6
 20
23.5
 11
5.5
 21
23.5
  0
LINE
  8
0
 10
5.5
 20
23.5
 11
5.5
 21
24
  0
LINE
  8
0
 10
5.5
 20
24
 11
5
 21
24
  0
LINE
  8
0
 10
5
 20
24
 11
5
 21
23.5
  0
LINE
  8
0
 10
5
 20
23.5
 11
4.5
 21
23.5
  0
LINE
  8
0
 10
4.5
 20
23.5
 11
4.5
 21
24
  0
LINE
  8
0
 10
4.5
 20
24
 11
4
 21
24
  0
LINE
  8
0
 10
4
 20
24
 11
4
 21
23.5
  0
LINE
  8
0
 10
4
 20
23.5
 11
3.5
 21
23.5
  0
LINE
  8
0
 10
3.5
 20
23.5
 11
3.5
 21
24
  0
LINE
  8
0
 10
3.5
 20
24
 11
3
 21
24
  0
LINE
  8
0
 10
3
 20
24
 11
3
 21
23.5
  0
LINE
  8
0
 10
3
 20
23.5
 11
2.5
 21
23.5
  0
LINE
  8
0
 10
2.5
 20
23.5
 11
2.5
 21
24
  0
LINE
  8
0
 10
2.5
 20
24
 11
2
 21
24
  0
LINE
  8
0
 10
2
 20
24
 11
2
 21
23.5
  0
LINE
  8
0
 10
2
 20
23.5
 11
1.5
 21
23.5
  0
LINE
  8
0
 10
1.5
 20
23.5
 11
1.5
 21
24
  0
LINE
  8
0
 10
1.5
 20
24
 11
1
 21
24
  0
LINE
  8
0
 10
1
 20
24
 11
1
 21
23.5
  0
LINE
  8
0
 10
1
 20
23.5
 11
0.5
 21
23.5
  0
LINE
  8
0
 10
0.5
 20
23.5
 11
0.5
 21
24
  0
LINE
  8
0
 10
0.5
 20
24
 11
0
 21
24
  0
LINE
  8
0
 10
0
 20
24
 11
0
 21
23
  0
LINE
  8
0
 10
0
 20
23
 11
-0.5
 21
23
  0
LINE
  8
0
 10
-0.5
 20
23
 11
-0.5
 21
22.5
  0
LINE
  8
0
 10
-0.5
 20
22.5
 11
0
 21
22.5
  0
LINE
  8
0
 10
0
 20
22.5
 11
0
 21
22
  0
LINE
  8
0
 10
0
 20
22
 11
-0.5
 21
22
  0
LINE
  8
0
 10
-0.5
 20
22
 11
-0.5
 21
21.5
  0
LINE
  8
0
 10
-0.5
 20
21.5
 11
0
 21
21.5
  0
LINE
  8
0
 10
0
 20
21.5
 11
0
 21
21
  0
LINE
  8
0
 10
0
 20
21
 11
-0.5
 21
21
  0
LINE
  8
0
 10
-0.5
 20
21
 11
-0.5
 21
20.5
  0
LINE
  8
0
 10
-0.5
 20
20.5
 11
0
 21
20.5
  0
LINE
  8
0
 10
0
 20
20.5
 11
0
 21
20
  0
LINE
  8
0
 10
0
 20
20
 11
-0.5
 21
20
  0
LINE
  8
0
 10
-0.5
 20
20
 11
-0.5
 21
19.5
  0
LINE
  8
0
 10
-0.5
 20
19.5
 11
0
 21
19.5
  0
LINE
  8
0
 10
0
 20
19.5
 11
0
 21
19
  0
LINE
  8
0
 10
0
 20
19
 11
-0.5
 21
19
  0
LINE
  8
0
 10
-0.5
 20
19
 11
-0.5
 21
18.5
  0
LINE
  8
0
 10
-0.5
 20
18.5
 11
0
 21
18.5
  0
LINE
  8
0
 10
0
 20
18.5
 11
0
 21
18
  0
LINE
  8
0
 10
0
 20
18
 11
-0.5
 21
18
  0
LINE
  8
0
 10
-0.5
 20
18
 11
-0.5
 21
17.5
  0
LINE
  8
0
 10
-0.5
 20
17.5
 11
0
 21
17.5
  0
LINE
  8
0
 10
0
 20
17.5
 11
0
 21
17
  0
LINE
  8
0
 10
0
 20
17
 11
-0.5
 21
17
  0
LINE
  8
0
 10
-0.5
 20
17
 11
-0.5
 21
16.5
  0
LINE
  8
0
 10
-0.5
 20
16.5
 11
0
 21
16.5
  0
LINE
  8
0
 10
0
 20
16.5
 11
0
 21
16
  0
LINE
  8
0
 10
0
 20
16
 11
-0.5
 21
16
  0
LINE
  8
0
 10
-0.5
 20
16
 11
-0.5
 21
15.5
  0
LINE
  8
0
 10
-0.5
 20
15.5
 11
0
 21
15.5
  0
LINE
  8
0
 10
0
 20
15.5
 11
0
 21
15
  0
LINE
  8
0
 10
0
 20
15
 11
-0.5
 21
15
  0
LINE
  8
0
 10
-0.5
 20
15
 11
-0.5
 21
14.5
  0
LINE
  8
0
 10
-0.5
 20
14.5
 11
0
 21
14.5
  0
LINE
  8
0
 10
0
 20
14.5
 11
0
 21
14
  0
LINE
  8
0
 10
0
 20
14
 11
-0.5
 21
14
  0
LINE
  8
0
 10
-0.5
 20
14
 11
-0.5
 21
13.5
  0
LINE
  8
0
 10
-0.5
 20
13.5
 11
0
 21
13.5
  0
LINE
  8
0
 10
0
 20
13.5
 11
0
 21
13
  0
LINE
  8
0
 10
0
 20
13
 11
-0.5
 21
13
  0
LINE
  8
0
 10
-0.5
 20
13
 11
-0.5
 21
12.5
  0
LINE
  8
0
 10
-0.5
 20
12.5
 11
0
 21
12.5
  0
LINE
  8
0
 10
0
 20
12.5
 11
0
 21
12
  0
LINE
  8
0
 10
0
 20
12
 11
0.5
 21
12
  0
LINE
  8
0
 10
0.5
 20
12
 11
0.5
 21
12.5
  0
LINE
  8
0
 10
0.5
 20
12.5
 11
1
 21
12.5
  0
LINE
  8
0
 10
1
 20
12.5
 11
1
 21
12
  0
LINE
  8
0
 10
1
 20
12
 11
1.5
 21
12
  0
LINE
  8
0
 10
1.5
 20
12
 11
1.5
 21
12.5
  0
LINE
  8
0
 10
1.5
 20
12.5
 11
2
 21
12.5
  0
LINE
  8
0
 10
2
 20
12.5
 11
2
 21
12
  0
LINE
  8
0
 10
2
 20
12
 11
2.5
 21
12
  0
LINE
  8
0
 10
2.5
 20
12
 11
2.5
 21
12.5
  0
LINE
  8
0
 10
2.5
 20
12.5
 11
3
 21
12.5
  0
LINE
  8
0
 10
3
 20
12.5
 11
3
 21
12
  0
LINE
  8
0
 10
3
 20
12
 11
3.5
 21
12
  0
LINE
  8
0
 10
3.5
 20
12
 11
3.5
 21
12.5
  0
LINE
  8
0
 10
3.5
 20
12.5
 11
4
 21
12.5
  0
LINE
  8
0
 10
4
 20
12.5
 11
4
 21
12
  0
LINE
  8
0
 10
4
 20
12
 11
4.5
 21
12
  0
LINE
  8
0
 10
4.5
 20
12
 11
4.5
 21
12.5
  0
LINE
  8
0
 10
4.5
 20
12.5
 11
5
 21
12.5
  0
LINE
  8
0
 10
5
 20
12.5
 11
5
 21
12
  0
LINE
  8
0
 10
5
 20
12
 11
5.5
 21
12
  0
LINE
  8
0
 10
5.5
 20
12
 11
5.5
 21
12.5
  0
LINE
  8
0
 10
5.5
 20
12.5
 11
6
 21
12.5
  0
LINE
  8
0
 10
6
 20
12.5
 11
6
 21
12
  0
LINE
  8
0
 10
6
 20
12
 11
6.5
 21
12
  0
LINE
  8
0
 10
6.5
 20
12
 11
6.5
 21
12.5
  0
LINE
  8
0
 10
6.5
 20
12.5
 11
7
 21
12.5
  0
LINE
  8
0
 10
7
 20
12.5
 11
7
 21
12
  0
LINE
  8
0
 10
7
 20
12
 11
7.5
 21
12
  0
LINE
  8
0
 10
7.5
 20
12
 11
7.5
 21
12.5
  0
LINE
  8
0
 10
7.5
 20
12.5
 11
8
 21
12.5
  0
LINE
  8
0
 10
8
 20
12.5
 11
8
 21
12
  0
LINE
  8
0
 10
0.399994
 20
16.2
 11
0.399994
 21
21.8
  0
LINE
  8
0
 10
0.399994
 20
21.8
 11
10.6
 21
21.8
  0
LINE
  8
0
 10
10.6
 20
21.8
 11
10.6
 21
16.2
  0
LINE
  8
0
 10
10.6
 20
16.2
 11
0.399994
 21
16.2
  0
LINE
  8
0
 10
5.44034
 20
13.5519
 11
5.38092
 21
13.5575
  0
LINE
  8
0
 10
5.38092
 20
13.5575
 11
5.32198
 21
13.5668
  0
LINE
  8
0
 10
5.32198
 20
13.5668
 11
5.26373
 21
13.5798
  0
LINE
  8
0
 10
5.26373
 20
13.5798
 11
5.20642
 21
13.5965
  0
LINE
  8
0
 10
5.20642
 20
13.5965
 11
5.15027
 21
13.6167
  0
LINE
  8
0
 10
5.15027
 20
13.6167
 11
5.0955
 21
13.6404
  0
LINE
  8
0
 10
5.0955
 20
13.6404
 11
5.04233
 21
13.6675
  0
LINE
  8
0
 10
5.04233
 20
13.6675
 11
4.99095
 21
13.6979
  0
LINE
  8
0
 10
4.99095
 20
13.6979
 11
4.94159
 21
13.7314
  0
LINE
  8
0
 10
4.94159
 20
13.7314
 11
4.89444
 21
13.768
  0
LINE
  8
0
 10
4.89444
 20
13.768
 11
4.84967
 21
13.8075
  0
LINE
  8
0
 10
4.84967
 20
13.8075
 11
4.80746
 21
13.8497
  0
LINE
  8
0
 10
4.80746
 20
13.8497
 11
4.76801
 21
13.8944
  0
LINE
  8
0
 10
4.76801
 20
13.8944
 11
4.73143
 21
13.9416
  0
LINE
  8
0
 10
4.73143
 20
13.9416
 11
4.69788
 21
13.991
  0
LINE
  8
0
 10
4.69788
 20
13.991
 11
4.6675
 21
14.0423
  0
LINE
  8
0
 10
4.6675
 20
14.0423
 11
4.64041
 21
14.0955
  0
LINE
  8
0
 10
4.64041
 20
14.0955
 11
4.6167
 21
14.1503
  0
LINE
  8
0
 10
4.6167
 20
14.1503
 11
4.59648
 21
14.2064
  0
LINE
  8
0
 10
4.59648
 20
14.2064
 11
4.57983
 21
14.2637
  0
LINE
  8
0
 10
4.57983
 20
14.2637
 11
4.56682
 21
14.322
  0
LINE
  8
0
 10
4.56682
 20
14.322
 11
4.55748
 21
14.3809
  0
LINE
  8
0
 10
4.55748
 20
14.3809
 11
4.55186
 21
14.4403
  0
LINE
  8
0
 10
4.55186
 20
14.4403
 11
4.54999
 21
14.5
  0
LINE
  8
0
 10
4.54999
 20
14.5
 11
4.55186
 21
14.5596
  0
LINE
  8
0
 10
4.55186
 20
14.5596
 11
4.55748
 21
14.6191
  0
LINE
  8
0
 10
4.55748
 20
14.6191
 11
4.56682
 21
14.678
  0
LINE
  8
0
 10
4.56682
 20
14.678
 11
4.57983
 21
14.7363
  0
LINE
  8
0
 10
4.57983
 20
14.7363
 11
4.59648
 21
14.7936
  0
LINE
  8
0
 10
4.59648
 20
14.7936
 11
4.6167
 21
14.8497
  0
LINE
  8
0
 10
4.6167
 20
14.8497
 11
4.64041
 21
14.9045
  0
LINE
  8
0
 10
4.64041
 20
14.9045
 11
4.6675
 21
14.9577
  0
LINE
  8
0
 10
4.6675
 20
14.9577
 11
4.69788
 21
15.009
  0
LINE
  8
0
 10
4.69788
 20
15.009
 11
4.73143
 21
15.0584
  0
LINE
  8
0
 10
4.73143
 20
15.0584
 11
4.76801
 21
15.1055
  0
LINE
  8
0
 10
4.76801
 20
15.1055
 11
4.80746
 21
15.1503
  0
LINE
  8
0
 10
4.80746
 20
15.1503
 11
4.84967
 21
15.1925
  0
LINE
  8
0
 10
4.84967
 20
15.1925
 11
4.89444
 21
15.232
  0
LINE
  8
0
 10
4.89444
 20
15.232
 11
4.94159
 21
15.2686
  0
LINE
  8
0
 10
4.94159
 20
15.2686
 11
4.99095
 21
15.3021
  0
LINE
  8
0
 10
4.99095
 20
15.3021
 11
5.04233
 21
15.3325
  0
LINE
  8
0
 10
5.04233
 20
15.3325
 11
5.0955
 21
15.3596
  0
LINE
  8
0
 10
5.0955
 20
15.3596
 11
5.15027
 21
15.3833
  0
LINE
  8
0
 10
5.15027
 20
15.3833
 11
5.20642
 21
15.4035
  0
LINE
  8
0
 10
5.20642
 20
15.4035
 11
5.26373
 21
15.4202
  0
LINE
  8
0
 10
5.26373
 20
15.4202
 11
5.32198
 21
15.4332
  0
LINE
  8
0
 10
5.32198
 20
15.4332
 11
5.38092
 21
15.4425
  0
LINE
  8
0
 10
5.38092
 20
15.4425
 11
5.44034
 21
15.4481
  0
LINE
  8
0
 10
5.44034
 20
15.4481
 11
5.5
 21
15.45
  0
LINE
  8
0
 10
5.5
 20
15.45
 11
5.55965
 21
15.4481
  0
LINE
  8
0
 10
5.55965
 20
15.4481
 11
5.61906
 21
15.4425
  0
LINE
  8
0
 10
5.61906
 20
15.4425
 11
5.67801
 21
15.4332
  0
LINE
  8
0
 10
5.67801
 20
15.4332
 11
5.73625
 21
15.4202
  0
LINE
  8
0
 10
5.73625
 20
15.4202
 11
5.79356
 21
15.4035
  0
LINE
  8
0
 10
5.79356
 20
15.4035
 11
5.84972
 21
15.3833
  0
LINE
  8
0
 10
5.84972
 20
15.3833
 11
5.90448
 21
15.3596
  0
LINE
  8
0
 10
5.90448
 20
15.3596
 11
5.95766
 21
15.3325
  0
LINE
  8
0
 10
5.95766
 20
15.3325
 11
6.00903
 21
15.3021
  0
LINE
  8
0
 10
6.00903
 20
15.3021
 11
6.0584
 21
15.2686
  0
LINE
  8
0
 10
6.0584
 20
15.2686
 11
6.10555
 21
15.232
  0
LINE
  8
0
 10
6.10555
 20
15.232
 11
6.15031
 21
15.1925
  0
LINE
  8
0
 10
6.15031
 20
15.1925
 11
6.19252
 21
15.1503
  0
LINE
  8
0
 10
6.19252
 20
15.1503
 11
6.23198
 21
15.1055
  0
LINE
  8
0
 10
6.23198
 20
15.1055
 11
6.26855
 21
15.0584
  0
LINE
  8
0
 10
6.26855
 20
15.0584
 11
6.30211
 21
15.009
  0
LINE
  8
0
 10
6.30211
 20
15.009
 11
6.33249
 21
14.9577
  0
LINE
  8
0
 10
6.33249
 20
14.9577
 11
6.35957
 21
14.9045
  0
LINE
  8
0
 10
6.35957
 20
14.9045
 11
6.38329
 21
14.8497
  0
LINE
  8
0
 10
6.38329
 20
14.8497
 11
6.4035
 21
14.7936
  0
LINE
  8
0
 10
6.4035
 20
14.7936
 11
6.42015
 21
14.7363
  0
LINE
  8
0
 10
6.42015
 20
14.7363
 11
6.43317
 21
14.678
  0
LINE
  8
0
 10
6.43317
 20
14.678
 11
6.4425
 21
14.6191
  0
LINE
  8
0
 10
6.4425
 20
14.6191
 11
6.44812
 21
14.5596
  0
LINE
  8
0
 10
6.44812
 20
14.5596
 11
6.45
 21
14.5
  0
LINE
  8
0
 10
6.45
 20
14.5
 11
6.44812
 21
14.4403
  0
LINE
  8
0
 10
6.44812
 20
14.4403
 11
6.4425
 21
14.3809
  0
LINE
  8
0
 10
6.4425
 20
14.3809
 11
6.43317
 21
14.322
  0
LINE
  8
0
 10
6.43317
 20
14.322
 11
6.42015
 21
14.2637
  0
LINE
  8
0
 10
6.42015
 20
14.2637
 11
6.4035
 21
14.2064
  0
LINE
  8
0
 10
6.4035
 20
14.2064
 11
6.38329
 21
14.1503
  0
LINE
  8
0
 10
6.38329
 20
14.1503
 11
6.35957
 21
14.0955
  0
LINE
  8
0
 10
6.35957
 20
14.0955
 11
6.33249
 21
14.0423
  0
LINE
  8
0
 10
6.33249
 20
14.0423
 11
6.30211
 21
13.991
  0
LINE
  8
0
 10
6.30211
 20
13.991
 11
6.26855
 21
13.9416
  0
LINE
  8
0
 10
6.26855
 20
13.9416
 11
6.23198
 21
13.8944
  0
LINE
  8
0
 10
6.23198
 20
13.8944
 11
6.19252
 21
13.8497
  0
LINE
  8
0
 10
6.19252
 20
13.8497
 11
6.15031
 21
13.8075
  0
LINE
  8
0
 10
6.15031
 20
13.8075
 11
6.10555
 21
13.768
  0
LINE
  8
0
 10
6.10555
 20
13.768
 11
6.0584
 21
13.7314
  0
LINE
  8
0
 10
6.0584
 20
13.7314
 11
6.00903
 21
13.6979
  0
LINE
  8
0
 10
6.00903
 20
13.6979
 11
5.95766
 21
13.6675
  0
LINE
  8
0
 10
5.95766
 20
13.6675
 11
5.90448
 21
13.6404
  0
LINE
  8
0
 10
5.90448
 20
13.6404
 11
5.84972
 21
13.6167
  0
LINE
  8
0
 10
5.84972
 20
13.6167
 11
5.79356
 21
13.5965
  0
LINE
  8
0
 10
5.79356
 20
13.5965
 11
5.73625
 21
13.5798
  0
LINE
  8
0
 10
5.73625
 20
13.5798
 11
5.67801
 21
13.5668
  0
LINE
  8
0
 10
5.67801
 20
13.5668
 11
5.61906
 21
13.5575
  0
LINE
  8
0
 10
5.61906
 20
13.5575
 11
5.55965
 21
13.5519
  0
LINE
  8
0
 10
5.55965
 20
13.5519
 11
5.5
 21
13.55
  0
LINE
  8
0
 10
5.5
 20
13.55
 11
5.44034
 21
13.5519
  0
LINE
  8
0
 10
13.5
 20
12.5
 11
14
 21
12.5
  0
LINE
  8
0
 10
14
 20
12.5
 11
14
 21
12
  0
LINE
  8
0
 10
14
 20
12
 11
14.5
 21
12
  0
LINE
  8
0
 10
14.5
 20
12
 11
14.5
 21
12.5
  0
LINE
  8
0
 10
14.5
 20
12.5
 11
15
 21
12.5
  0
LINE
  8
0
 10
15
 20
12.5
 11
15
 21
12
  0
LINE
  8
0
 10
15
 20
12
 11
15.5
 21
12
  0
LINE
  8
0
 10
15.5
 20
12
 11
15.5
 21
12.5
  0
LINE
  8
0
 10
15.5
 20
12.5
 11
16
 21
12.5
  0
LINE
  8
0
 10
16
 20
12.5
 11
16
 21
12
  0
LINE
  8
0
 10
16
 20
12
 11
16.5
 21
12
  0
LINE
  8
0
 10
16.5
 20
12
 11
16.5
 21
12.5
  0
LINE
  8
0
 10
16.5
 20
12.5
 11
17
 21
12.5
  0
LINE
  8
0
 10
17
 20
12.5
 11
17
 21
12
  0
LINE
  8
0
 10
17
 20
12
 11
17.5
 21
12
  0
LINE
  8
0
 10
17.5
 20
12
 11
17.5
 21
12.5
  0
LINE
  8
0
 10
17.5
 20
12.5
 11
18
 21
12.5
  0
LINE
  8
0
 10
18
 20
12.5
 11
18
 21
12
  0
LINE
  8
0
 10
18
 20
12
 11
18.5
 21
12
  0
LINE
  8
0
 10
18.5
 20
12
 11
18.5
 21
12.5
  0
LINE
  8
0
 10
18.5
 20
12.5
 11
19
 21
12.5
  0
LINE
  8
0
 10
19
 20
12.5
 11
19
 21
12
  0
LINE
  8
0
 10
19
 20
12
 11
19.5
 21
12
  0
LINE
  8
0
 10
19.5
 20
12
 11
19.5
 21
12.5
  0
LINE
  8
0
 10
19.5
 20
12.5
 11
20
 21
12.5
  0
LINE
  8
0
 10
20
 20
12.5
 11
20
 21
12
  0
LINE
  8
0
 10
20
 20
12
 11
20.5
 21
12
  0
LINE
  8
0
 10
20.5
 20
12
 11
20.5
 21
12.5
  0
LINE
  8
0
 10
20.5
 20
12.5
 11
21
 21
12.5
  0
LINE
  8
0
 10
21
 20
12.5
 11
21
 21
12
  0
LINE
  8
0
 10
21
 20
12
 11
21.5
 21
12
  0
LINE
  8
0
 10
21.5
 20
12
 11
21.5
 21
12.5
  0
LINE
  8
0
 10
21.5
 20
12.5
 11
22
 21
12.5
  0
LINE
  8
0
 10
22
 20
12.5
 11
22
 21
12
  0
LINE
  8
0
 10
22
 20
12
 11
22.5
 21
12
  0
LINE
  8
0
 10
22.5
 20
12
 11
22.5
 21
12.5
  0
LINE
  8
0
 10
22.5
 20
12.5
 11
23
 21
12.5
  0
LINE
  8
0
 10
23
 20
12.5
 11
23
 21
12
  0
LINE
  8
0
 10
23
 20
12
 11
23.5
 21
12
  0
LINE
  8
0
 10
23.5
 20
12
 11
23.5
 21
13
  0
LINE
  8
0
 10
23.5
 20
13
 11
24
 21
13
  0
LINE
  8
0
 10
24
 20
13
 11
24
 21
13.5
  0
LINE
  8
0
 10
24
 20
13.5
 11
23.5
 21
13.5
  0
LINE
  8
0
 10
23.5
 20
13.5
 11
23.5
 21
14
  0
LINE
  8
0
 10
23.5
 20
14
 11
24
 21
14
  0
LINE
  8
0
 10
24
 20
14
 11
24
 21
14.5
  0
LINE
  8
0
 10
24
 20
14.5
 11
23.5
 21
14.5
  0
LINE
  8
0
 10
23.5
 20
14.5
 11
23.5
 21
15
  0
LINE
  8
0
 10
23.5
 20
15
 11
24
 21
15
  0
LINE
  8
0
 10
24
 20
15
 11
24
 21
15.5
  0
LINE
  8
0
 10
24
 20
15.5
 11
23.5
 21
15.5
  0
LINE
  8
0
 10
23.5
 20
15.5
 11
23.5
 21
16
  0
LINE
  8
0
 10
23.5
 20
16
 11
24
 21
16
  0
LINE
  8
0
 10
24
 20
16
 11
24
 21
16.5
  0
LINE
  8
0
 10
24
 20
16.5
 11
23.5
 21
16.5
  0
LINE
  8
0
 10
23.5
 20
16.5
 11
23.5
 21
17
  0
LINE
  8
0
 10
23.5
 20
17
 11
24
 21
17
  0
LINE
  8
0
 10
24
 20
17
 11
24
 21
17.5
  0
LINE
  8
0
 10
24
 20
17.5
 11
23.5
 21
17.5
  0
LINE
  8
0
 10
23.5
 20
17.5
 11
23.5
 21
18
  0
LINE
  8
0
 10
23.5
 20
18
 11
24
 21
18
  0
LINE
  8
0
 10
24
 20
18
 11
24
 21
18.5
  0
LINE
  8
0
 10
24
 20
18.5
 11
23.5
 21
18.5
  0
LINE
  8
0
 10
23.5
 20
18.5
 11
23.5
 21
19
  0
LINE
  8
0
 10
23.5
 20
19
 11
24
 21
19
  0
LINE
  8
0
 10
24
 20
19
 11
24
 21
19.5
  0
LINE
  8
0
 10
24
 20
19.5
 11
23.5
 21
19.5
  0
LINE
  8
0
 10
23.5
 20
19.5
 11
23.5
 21
20
  0
LINE
  8
0
 10
23.5
 20
20
 11
23
 21
20
  0
LINE
  8
0
 10
23
 20
20
 11
23
 21
19.5
  0
LINE
  8
0
 10
23
 20
19.5
 11
22.5
 21
19.5
  0
LINE
  8
0
 10
22.5
 20
19.5
 11
22.5
 21
20
  0
LINE
  8
0
 10
22.5
 20
20
 11
22
 21
20
  0
LINE
  8
0
 10
22
 20
20
 11
22
 21
19.5
  0
LINE
  8
0
 10
22
 20
19.5
 11
21.5
 21
19.5
  0
LINE
  8
0
 10
21.5
 20
19.5
 11
21.5
 21
20
  0
LINE
  8
0
 10
21.5
 20
20
 11
21
 21
20
  0
LINE
  8
0
 10
21
 20
20
 11
21
 21
19.5
  0
LINE
  8
0
 10
21
 20
19.5
 11
20.5
 21
19.5
  0
LINE
  8
0
 10
20.5
 20
19.5
 11
20.5
 21
20
  0
LINE
  8
0
 10
20.5
 20
20
 11
20
 21
20
  0
LINE
  8
0
 10
20
 20
20
 11
20
 21
19.5
  0
LINE
  8
0
 10
20
 20
19.5
 11
19.5
 21
19.5
  0
LINE
  8
0
 10
19.5
 20
19.5
 11
19.5
 21
20
  0
LINE
  8
0
 10
19.5
 20
20
 11
19
 21
20
  0
LINE
  8
0
 10
19
 20
20
 11
19
 21
19.5
  0
LINE
  8
0
 10
19
 20
19.5
 11
18.5
 21
19.5
  0
LINE
  8
0
 10
18.5
 20
19.5
 11
18.5
 21
20
  0
LINE
  8
0
 10
18.5
 20
20
 11
18
 21
20
  0
LINE
  8
0
 10
18
 20
20
 11
18
 21
19.5
  0
LINE
  8
0
 10
18
 20
19.5
 11
17.5
 21
19.5
  0
LINE
  8
0
 10
17.5
 20
19.5
 11
17.5
 21
20
  0
LINE
  8
0
 10
17.5
 20
20
 11
17
 21
20
  0
LINE
  8
0
 10
17
 20
20
 11
17
 21
19.5
  0
LINE
  8
0
 10
17
 20
19.5
 11
16.5
 21
19.5
  0
LINE
  8
0
 10
16.5
 20
19.5
 11
16.5
 21
20
  0
LINE
  8
0
 10
16.5
 20
20
 11
16
 21
20
  0
LINE
  8
0
 10
16
 20
20
 11
16
 21
19.5
  0
LINE
  8
0
 10
16
 20
19.5
 11
15.5
 21
19.5
  0
LINE
  8
0
 10
15.5
 20
19.5
 11
15.5
 21
20
  0
LINE
  8
0
 10
15.5
 20
20
 11
15
 21
20
  0
LINE
  8
0
 10
15
 20
20
 11
15
 21
19.5
  0
LINE
  8
0
 10
15
 20
19.5
 11
14.5
 21
19.5
  0
LINE
  8
0
 10
14.5
 20
19.5
 11
14.5
 21
20
  0
LINE
  8
0
 10
14.5
 20
20
 11
14
 21
20
  0
LINE
  8
0
 10
14
 20
20
 11
14
 21
19.5
  0
LINE
  8
0
 10
14
 20
19.5
 11
13.5
 21
19.5
  0
LINE
  8
0
 10
13.5
 20
19.5
 11
13.5
 21
20
  0
LINE
  8
0
 10
13.5
 20
20
 11
13
 21
20
  0
LINE
  8
0
 10
13
 20
20
 11
13
 21
19.5
  0
LINE
  8
0
 10
13
 20
19.5
 11
12
 21
19.5
  0
LINE
  8
0
 10
12
 20
19.5
 11
12
 21
19
  0
LINE
  8
0
 10
12
 20
19
 11
12.5
 21
19
  0
LINE
  8
0
 10
12.5
 20
19
 11
12.5
 21
18.5
  0
LINE
  8
0
 10
12.5
 20
18.5
 11
12
 21
18.5
  0
LINE
  8
0
 10
12
 20
18.5
 11
12
 21
18
  0
LINE
  8
0
 10
12
 20
18
 11
12.5
 21
18
  0
LINE
  8
0
 10
12.5
 20
18
 11
12.5
 21
17.5
  0
LINE
  8
0
 10
12.5
 20
17.5
 11
12
 21
17.5
  0
LINE
  8
0
 10
12
 20
17.5
 11
12
 21
17
  0
LINE
  8
0
 10
12
 20
17
 11
12.5
 21
17
  0
LINE
  8
0
 10
12.5
 20
17
 11
12.5
 21
16.5
  0
LINE
  8
0
 10
12.5
 20
16.5
 11
12
 21
16.5
  0
LINE
  8
0
 10
12
 20
16.5
 11
12
 21
16
  0
LINE
  8
0
 10
12
 20
16
 11
12.5
 21
16
  0
LINE
  8
0
 10
12.5
 20
16
 11
12.5
 21
15.5
  0
LINE
  8
0
 10
12.5
 20
15.5
 11
12
 21
15.5
  0
LINE
  8
0
 10
12
 20
15.5
 11
12
 21
15
  0
LINE
  8
0
 10
12
 20
15
 11
12.5
 21
15
  0
LINE
  8
0
 10
12.5
 20
15
 11
12.5
 21
14.5
  0
LINE
  8
0
 10
12.5
 20
14.5
 11
12
 21
14.5
  0
LINE
  8
0
 10
12
 20
14.5
 11
12
 21
14
  0
LINE
  8
0
 10
12
 20
14
 11
12.5
 21
14
  0
LINE
  8
0
 10
12.5
 20
14
 11
12.5
 21
13.5
  0
LINE
  8
0
 10
12.5
 20
13.5
 11
12
 21
13.5
  0
LINE
  8
0
 10
12
 20
13.5
 11
12
 21
13
  0
LINE
  8
0
 10
12
 20
13
 11
12.5
 21
13
  0
LINE
  8
0
 10
12.5
 20
13
 11
12.5
 21
12.5
  0
LINE
  8
0
 10
12.5
 20
12.5
 11
13
 21
12.5
  0
LINE
  8
0
 10
13
 20
12.5
 11
13
 21
12
  0
LINE
  8
0
 10
13
 20
12
 11
13.5
 21
12
  0
LINE
  8
0
 10
13.5
 20
12
 11
13.5
 21
12.5
  0
LINE
  8
0
 10
24.5
 20
4.5
 11
25
 21
4.5
  0
LINE
  8
0
 10
25
 20
4.5
 11
25
 21
4
  0
LINE
  8
0
 10
25
 20
4
 11
24.5
 21
4
  0
LINE
  8
0
 10
24.5
 20
4
 11
24.5
 21
3.5
  0
LINE
  8
0
 10
24.5
 20
3.5
 11
25
 21
3.5
  0
LINE
  8
0
 10
25
 20
3.5
 11
25
 21
3
  0
LINE
  8
0
 10
25
 20
3
 11
24.5
 21
3
  0
LINE
  8
0
 10
24.5
 20
3
 11
24.5
 21
2.5
  0
LINE
  8
0
 10
24.5
 20
2.5
 11
25
 21
2.5
  0
LINE
  8
0
 10
25
 20
2.5
 11
25
 21
2
  0
LINE
  8
0
 10
25
 20
2
 11
24.5
 21
2
  0
LINE
  8
0
 10
24.5
 20
2
 11
24.5
 21
1.5
  0
LINE
  8
0
 10
24.5
 20
1.5
 11
25
 21
1.5
  0
LINE
  8
0
 10
25
 20
1.5
 11
25
 21
1
  0
LINE
  8
0
 10
25
 20
1
 11
24.5
 21
1
  0
LINE
  8
0
 10
24.5
 20
1
 11
24.5
 21
0.5
  0
LINE
  8
0
 10
24.5
 20
0.5
 11
25
 21
0.5
  0
LINE
  8
0
 10
25
 20
0.5
 11
25
 21
0
  0
LINE
  8
0
 10
25
 20
0
 11
24.5
 21
0
  0
LINE
  8
0
 10
24.5
 20
0
 11
24.5
 21
-0.5
  0
LINE
  8
0
 10
24.5
 20
-0.5
 11
25.5
 21
-0.5
  0
LINE
  8
0
 10
25.5
 20
-0.5
 11
25.5
 21
0
  0
LINE
  8
0
 10
25.5
 20
0
 11
26
 21
0
  0
LINE
  8
0
 10
26
 20
0
 11
26
 21
-0.5
  0
LINE
  8
0
 10
26
 20
-0.5
 11
26.5
 21
-0.5
  0
LINE
  8
0
 10
26.5
 20
-0.5
 11
26.5
 21
0
  0
LINE
  8
0
 10
26.5
 20
0
 11
27
 21
0
  0
LINE
  8
0
 10
27
 20
0
 11
27
 21
-0.5
  0
LINE
  8
0
 10
27
 20
-0.5
 11
27.5
 21
-0.5
  0
LINE
  8
0
 10
27.5
 20
-0.5
 11
27.5
 21
0
  0
LINE
  8
0
 10
27.5
 20
0
 11
28
 21
0
  0
LINE
  8
0
 10
28
 20
0
 11
28
 21
-0.5
  0
LINE
  8
0
 10
28
 20
-0.5
 11
28.5
 21
-0.5
  0
LINE
  8
0
 10
28.5
 20
-0.5
 11
28.5
 21
0
  0
LINE
  8
0
 10
28.5
 20
0
 11
29
 21
0
  0
LINE
  8
0
 10
29
 20
0
 11
29
 21
-0.5
  0
LINE
  8
0
 10
29
 20
-0.5
 11
29.5
 21
-0.5
  0
LINE
  8
0
 10
29.5
 20
-0.5
 11
29.5
 21
0
  0
LINE
  8
0
 10
29.5
 20
0
 11
30
 21
0
  0
LINE
  8
0
 10
30
 20
0
 11
30
 21
-0.5
  0
LINE
  8
0
 10
30
 20
-0.5
 11
30.5
 21
-0.5
  0
LINE
  8
0
 10
30.5
 20
-0.5
 11
30.5
 21
0
  0
LINE
  8
0
 10
30.5
 20
0
 11
31
 21
0
  0
LINE
  8
0
 10
31
 20
0
 11
31
 21
-0.5
  0
LINE
  8
0
 10
31
 20
-0.5
 11
31.5
 21
-0.5
  0
LINE
  8
0
 10
31.5
 20
-0.5
 11
31.5
 21
0
  0
LINE
  8
0
 10
31.5
 20
0
 11
32
 21
0
  0
LINE
  8
0
 10
32
 20
0
 11
32
 21
-0.5
  0
LINE
  8
0
 10
32
 20
-0.5
 11
32.5
 21
-0.5
  0
LINE
  8
0
 10
32.5
 20
-0.5
 11
32.5
 21
0.5
  0
LINE
  8
0
 10
32.5
 20
0.5
 11
32
 21
0.5
  0
LINE
  8
0
 10
32
 20
0.5
 11
32
 21
1
  0
LINE
  8
0
 10
32
 20
1
 11
32.5
 21
1
  0
LINE
  8
0
 10
32.5
 20
1
 11
32.5
 21
1.5
  0
LINE
  8
0
 10
32.5
 20
1.5
 11
32
 21
1.5
  0
LINE
  8
0
 10
32
 20
1.5
 11
32
 21
2
  0
LINE
  8
0
 10
32
 20
2
 11
32.5
 21
2
  0
LINE
  8
0
 10
32.5
 20
2
 11
32.5
 21
2.5
  0
LINE
  8
0
 10
32.5
 20
2.5
 11
32
 21
2.5
  0
LINE
  8
0
 10
32
 20
2.5
 11
32
 21
3
  0
LINE
  8
0
 10
32
 20
3
 11
32.5
 21
3
  0
LINE
  8
0
 10
32.5
 20
3
 11
32.5
 21
3.5
  0
LINE
  8
0
 10
32.5
 20
3.5
 11
32
 21
3.5
  0
LINE
  8
0
 10
32
 20
3.5
 11
32
 21
4
  0
LINE
  8
0
 10
32
 20
4
 11
32.5
 21
4
  0
LINE
  8
0
 10
32.5
 20
4
 11
32.5
 21
4.5
  0
LINE
  8
0
 10
32.5
 20
4.5
 11
32
 21
4.5
  0
LINE
  8
0
 10
32
 20
4.5
 11
32
 21
5
  0
LINE
  8
0
 10
32
 20
5
 11
32.5
 21
5
  0
LINE
  8
0
 10
32.5
 20
5
 11
32.5
 21
5.5
  0
LINE
  8
0
 10
32.5
 20
5.5
 11
32
 21
5.5
  0
LINE
  8
0
 10
32
 20
5.5
 11
32
 21
6
  0
LINE
  8
0
 10
32
 20
6
 11
32.5
 21
6
  0
LINE
  8
0
 10
32.5
 20
6
 11
32.5
 21
6.5
  0
LINE
  8
0
 10
32.5
 20
6.5
 11
32
 21
6.5
  0
LINE
  8
0
 10
32
 20
6.5
 11
32
 21
7
  0
LINE
  8
0
 10
32
 20
7
 11
32.5
 21
7
  0
LINE
  8
0
 10
32.5
 20
7
 11
32.5
 21
7.5
  0
LINE
  8
0
 10
32.5
 20
7.5
 11
32
 21
7.5
  0
LINE
  8
0
 10
32
 20
7.5
 11
32
 21
8
  0
LINE
  8
0
 10
32
 20
8
 11
32.5
 21
8
  0
LINE
  8
0
 10
32.5
 20
8
 11
32.5
 21
8.5
  0
LINE
  8
0
 10
32.5
 20
8.5
 11
32
 21
8.5
  0
LINE
  8
0
 10
32
 20
8.5
 11
32
 21
9
  0
LINE
  8
0
 10
32
 20
9
 11
32.5
 21
9
  0
LINE
  8
0
 10
32.5
 20
9
 11
32.5
 21
9.5
  0
LINE
  8
0
 10
32.5
 20
9.5
 11
32
 21
9.5
  0
LINE
  8
0
 10
32
 20
9.5
 11
32
 21
10
  0
LINE
  8
0
 10
32
 20
10
 11
32.5
 21
10
  0
LINE
  8
0
 10
32.5
 20
10
 11
32.5
 21
10.5
  0
LINE
  8
0
 10
32.5
 20
10.5
 11
32
 21
10.5
  0
LINE
  8
0
 10
32
 20
10.5
 11
32
 21
11
  0
LINE
  8
0
 10
32
 20
11
 11
32.5
 21
11
  0
LINE
  8
0
 10
32.5
 20
11
 11
32.5
 21
11.5
  0
LINE
  8
0
 10
32.5
 20
11.5
 11
31.5
 21
11.5
  0
LINE
  8
0
 10
31.5
 20
11.5
 11
31.5
 21
11
  0
LINE
  8
0
 10
31.5
 20
11
 11
31
 21
11
  0
LINE
  8
0
 10
31
 20
11
 11
31
 21
11.5
  0
LINE
  8
0
 10
31
 20
11.5
 11
30.5
 21
11.5
  0
LINE
  8
0
 10
30.5
 20
11.5
 11
30.5
 21
11
  0
LINE
  8
0
 10
30.5
 20
11
 11
30
 21
11
  0
LINE
  8
0
 10
30
 20
11
 11
30
 21
11.5
  0
LINE
  8
0
 10
30
 20
11.5
 11
29.5
 21
11.5
  0
LINE
  8
0
 10
29.5
 20
11.5
 11
29.5
 21
11
  0
LINE
  8
0
 10
29.5
 20
11
 11
29
 21
11
  0
LINE
  8
0
 10
29
 20
11
 11
29
 21
11.5
  0
LINE
  8
0
 10
29
 20
11.5
 11
28.5
 21
11.5
  0
LINE
  8
0
 10
28.5
 20
11.5
 11
28.5
 21
11
  0
LINE
  8
0
 10
28.5
 20
11
 11
28
 21
11
  0
LINE
  8
0
 10
28
 20
11
 11
28
 21
11.5
  0
LINE
  8
0
 10
28
 20
11.5
 11
27.5
 21
11.5
  0
LINE
  8
0
 10
27.5
 20
11.5
 11
27.5
 21
11
  0
LINE
  8
0
 10
27.5
 20
11
 11
27
 21
11
  0
LINE
  8
0
 10
27
 20
11
 11
27
 21
11.5
  0
LINE
  8
0
 10
27
 20
11.5
 11
26.5
 21
11.5
  0
LINE
  8
0
 10
26.5
 20
11.5
 11
26.5
 21
11
  0
LINE
  8
0
 10
26.5
 20
11
 11
26
 21
11
  0
LINE
  8
0
 10
26
 20
11
 11
26
 21
11.5
  0
LINE
  8
0
 10
26
 20
11.5
 11
25.5
 21
11.5
  0
LINE
  8
0
 10
25.5
 20
11.5
 11
25.5
 21
11
  0
LINE
  8
0
 10
25.5
 20
11
 11
25
 21
11
  0
LINE
  8
0
 10
25
 20
11
 11
25
 21
11.5
  0
LINE
  8
0
 10
25
 20
11.5
 11
24.5
 21
11.5
  0
LINE
  8
0
 10
24.5
 20
11.5
 11
24.5
 21
10.5
  0
LINE
  8
0
 10
24.5
 20
10.5
 11
25
 21
10.5
  0
LINE
  8
0
 10
25
 20
10.5
 11
25
 21
10
  0
LINE
  8
0
 10
25
 20
10
 11
24.5
 21
10
  0
LINE
  8
0
 10
24.5
 20
10
 11
24.5
 21
9.5
  0
LINE
  8
0
 10
24.5
 20
9.5
 11
25
 21
9.5
  0
LINE
  8
0
 10
25
 20
9.5
 11
25
 21
9
  0
LINE
  8
0
 10
25
 20
9
 11
24.5
 21
9
  0
LINE
  8
0
 10
24.5
 20
9
 11
24.5
 21
8.5
  0
LINE
  8
0
 10
24.5
 20
8.5
 11
25
 21
8.5
  0
LINE
  8
0
 10
25
 20
8.5
 11
25
 21
8
  0
LINE
  8
0
 10
25
 20
8
 11
24.5
 21
8
  0
LINE
  8
0
 10
24.5
 20
8
 11
24.5
 21
7.5
  0
LINE
  8
0
 10
24.5
 20
7.5
 11
25
 21
7.5
  0
LINE
  8
0
 10
25
 20
7.5
 11
25
 21
7
  0
LINE
  8
0
 10
25
 20
7
 11
24.5
 21
7
  0
LINE
  8
0
 10
24.5
 20
7
 11
24.5
 21
6.5
  0
LINE
  8
0
 10
24.5
 20
6.5
 11
25
 21
6.5
  0
LINE
  8
0
 10
25
 20
6.5
 11
25
 21
6
  0
LINE
  8
0
 10
25
 20
6
 11
24.5
 21
6
  0
LINE
  8
0
 10
24.5
 20
6
 11
24.5
 21
5.5
  0
LINE
  8
0
 10
24.5
 20
5.5
 11
25
 21
5.5
  0
LINE
  8
0
 10
25
 20
5.5
 11
25
 21
5
  0
LINE
  8
0
 10
25
 20
5
 11
24.5
 21
5
  0
LINE
  8
0
 10
24.5
 20
5
 11
24.5
 21
4.5
  0
LINE
  8
0
 10
1
 20
0
 11
1.5
 21
0
  0
LINE
  8
0
 10
1.5
 20
0
 11
1.5
 21
-0.5
  0
LINE
  8
0
 10
1.5
 20
-0.5
 11
2
 21
-0.5
  0
LINE
  8
0
 10
2
 20
-0.5
 11
2
 21
0
  0
LINE
  8
0
 10
2
 20
0
 11
2.5
 21
0
  0
LINE
  8
0
 10
2.5
 20
0
 11
2.5
 21
-0.5
  0
LINE
  8
0
 10
2.5
 20
-0.5
 11
3
 21
-0.5
  0
LINE
  8
0
 10
3
 20
-0.5
 11
3
 21
0
  0
LINE
  8
0
 10
3
 20
0
 11
3.5
 21
0
  0
LINE
  8
0
 10
3.5
 20
0
 11
3.5
 21
-0.5
  0
LINE
  8
0
 10
3.5
 20
-0.5
 11
4
 21
-0.5
  0
LINE
  8
0
 10
4
 20
-0.5
 11
4
 21
0
  0
LINE
  8
0
 10
4
 20
0
 11
4.5
 21
0
  0
LINE
  8
0
 10
4.5
 20
0
 11
4.5
 21
-0.5
  0
LINE
  8
0
 10
4.5
 20
-0.5
 11
5
 21
-0.5
  0
LINE
  8
0
 10
5
 20
-0.5
 11
5
 21
0
  0
LINE
  8
0
 10
5
 20
0
 11
5.5
 21
0
  0
LINE
  8
0
 10
5.5
 20
0
 11
5.5
 21
-0.5
  0
LINE
  8
0
 10
5.5
 20
-0.5
 11
6
 21
-0.5
  0
LINE
  8
0
 10
6
 20
-0.5
 11
6
 21
0
  0
LINE
  8
0
 10
6
 20
0
 11
6.5
 21
0
  0
LINE
  8
0
 10
6.5
 20
0
 11
6.5
 21
-0.5
  0
LINE
  8
0
 10
6.5
 20
-0.5
 11
7
 21
-0.5
  0
LINE
  8
0
 10
7
 20
-0.5
 11
7
 21
0
  0
LINE
  8
0
 10
7
 20
0
 11
7.5
 21
0
  0
LINE
  8
0
 10
7.5
 20
0
 11
7.5
 21
-0.5
  0
LINE
  8
0
 10
7.5
 20
-0.5
 11
8
 21
-0.5
  0
LINE
  8
0
 10
8
 20
-0.5
 11
8
 21
0
  0
LINE
  8
0
 10
8
 20
0
 11
8.5
 21
0
  0
LINE
  8
0
 10
8.5
 20
0
 11
8.5
 21
-0.5
  0
LINE
  8
0
 10
8.5
 20
-0.5
 11
9
 21
-0.5
  0
LINE
  8
0
 10
9
 20
-0.5
 11
9
 21
0
  0
LINE
  8
0
 10
9
 20
0
 11
9.5
 21
0
  0
LINE
  8
0
 10
9.5
 20
0
 11
9.5
 21
-0.5
  0
LINE
  8
0
 10
9.5
 20
-0.5
 11
10
 21
-0.5
  0
LINE
  8
0
 10
10
 20
-0.5
 11
10
 21
0
  0
LINE
  8
0
 10
10
 20
0
 11
10.5
 21
0
  0
LINE
  8
0
 10
10.5
 20
0
 11
10.5
 21
-0.5
  0
LINE
  8
0
 10
10.5
 20
-0.5
 11
11
 21
-0.5
  0
LINE
  8
0
 10
11
 20
-0.5
 11
11
 21
0.5
  0
LINE
  8
0
 10
11
 20
0.5
 11
11.5
 21
0.5
  0
LINE
  8
0
 10
11.5
 20
0.5
 11
11.5
 21
1
  0
LINE
  8
0
 10
11.5
 20
1
 11
11
 21
1
  0
LINE
  8
0
 10
11
 20
1
 11
11
 21
1.5
  0
LINE
  8
0
 10
11
 20
1.5
 11
11.5
 21
1.5
  0
LINE
  8
0
 10
11.5
 20
1.5
 11
11.5
 21
2
  0
LINE
  8
0
 10
11.5
 20
2
 11
11
 21
2
  0
LINE
  8
0
 10
11
 20
2
 11
11
 21
2.5
  0
LINE
  8
0
 10
11
 20
2.5
 11
11.5
 21
2.5
  0
LINE
  8
0
 10
11.5
 20
2.5
 11
11.5
 21
3
  0
LINE
  8
0
 10
11.5
 20
3
 11
11
 21
3
  0
LINE
  8
0
 10
11
 20
3
 11
11
 21
3.5
  0
LINE
  8
0
 10
11
 20
3.5
 11
11.5
 21
3.5
  0
LINE
  8
0
 10
11.5
 20
3.5
 11
11.5
 21
4
  0
LINE
  8
0
 10
11.5
 20
4
 11
11
 21
4
  0
LINE
  8
0
 10
11
 20
4
 11
11
 21
4.5
  0
LINE
  8
0
 10
11
 20
4.5
 11
11.5
 21
4.5
  0
LINE
  8
0
 10
11.5
 20
4.5
 11
11.5
 21
5
  0
LINE
  8
0
 10
11.5
 20
5
 11
11
 21
5
  0
LINE
  8
0
 10
11
 20
5
 11
11
 21
5.5
  0
LINE
  8
0
 10
11
 20
5.5
 11
11.5
 21
5.5
  0
LINE
  8
0
 10
11.5
 20
5.5
 11
11.5
 21
6
  0
LINE
  8
0
 10
11.5
 20
6
 11
11
 21
6
  0
LINE
  8
0
 10
11
 20
6
 11
11
 21
6.5
  0
LINE
  8
0
 10
11
 20
6.5
 11
11.5
 21
6.5
  0
LINE
  8
0
 10
11.5
 20
6.5
 11
11.5
 21
7
  0
LINE
  8
0
 10
11.5
 20
7
 11
11
 21
7
  0
LINE
  8
0
 10
11
 20
7
 11
11
 21
7.5
  0
LINE
  8
0
 10
11
 20
7.5
 11
11.5
 21
7.5
  0
LINE
  8
0
 10
11.5
 20
7.5
 11
11.5
 21
8
  0
LINE
  8
0
 10
11.5
 20
8
 11
11
 21
8
  0
LINE
  8
0
 10
11
 20
8
 11
11
 21
8.5
  0
LINE
  8
0
 10
11
 20
8.5
 11
11.5
 21
8.5
  0
LINE
  8
0
 10
11.5
 20
8.5
 11
11.5
 21
9
  0
LINE
  8
0
 10
11.5
 20
9
 11
11
 21
9
  0
LINE
  8
0
 10
11
 20
9
 11
11
 21
9.5
  0
LINE
  8
0
 10
11
 20
9.5
 11
11.5
 21
9.5
  0
LINE
  8
0
 10
11.5
 20
9.5
 11
11.5
 21
10
  0
LINE
  8
0
 10
11.5
 20
10
 11
11
 21
10
  0
LINE
  8
0
 10
11
 20
10
 11
11
 21
10.5
  0
LINE
  8
0
 10
11
 20
10.5
 11
11.5
 21
10.5
  0
LINE
  8
0
 10
11.5
 20
10.5
 11
11.5
 21
11
  0
LINE
  8
0
 10
11.5
 20
11
 11
10.5
 21
11
  0
LINE
  8
0
 10
10.5
 20
11
 11
10.5
 21
11.5
  0
LINE
  8
0
 10
10.5
 20
11.5
 11
10
 21
11.5
  0
LINE
  8
0
 10
10
 20
11.5
 11
10
 21
11
  0
LINE
  8
0
 10
10
 20
11
 11
9.5
 21
11
  0
LINE
  8
0
 10
9.5
 20
11
 11
9.5
 21
11.5
  0
LINE
  8
0
 10
9.5
 20
11.5
 11
9
 21
11.5
  0
LINE
  8
0
 10
9
 20
11.5
 11
9
 21
11
  0
LINE
  8
0
 10
9
 20
11
 11
8.5
 21
11
  0
LINE
  8
0
 10
8.5
 20
11
 11
8.5
 21
11.5
  0
LINE
  8
0
 10
8.5
 20
11.5
 11
8
 21
11.5
  0
LINE
  8
0
 10
8
 20
11.5
 11
8
 21
11
  0
LINE
  8
0
 10
8
 20
11
 11
7.5
 21
11
  0
LINE
  8
0
 10
7.5
 20
11
 11
7.5
 21
11.5
  0
LINE
  8
0
 10
7.5
 20
11.5
 11
7
 21
11.5
  0
LINE
  8
0
 10
7
 20
11.5
 11
7
 21
11
  0
LINE
  8
0
 10
7
 20
11
 11
6.5
 21
11
  0
LINE
  8
0
 10
6.5
 20
11
 11
6.5
 21
11.5
  0
LINE
  8
0
 10
6.5
 20
11.5
 11
6
 21
11.5
  0
LINE
  8
0
 10
6
 20
11.5
 11
6
 21
11
  0
LINE
  8
0
 10
6
 20
11
 11
5.5
 21
11
  0
LINE
  8
0
 10
5.5
 20
11
 11
5.5
 21
11.5
  0
LINE
  8
0
 10
5.5
 20
11.5
 11
5
 21
11.5
  0
LINE
  8
0
 10
5
 20
11.5
 11
5
 21
11
  0
LINE
  8
0
 10
5
 20
11
 11
4.5
 21
11
  0
LINE
  8
0
 10
4.5
 20
11
 11
4.5
 21
11.5
  0
LINE
  8
0
 10
4.5
 20
11.5
 11
4
 21
11.5
  0
LINE
  8
0
 10
4
 20
11.5
 11
4
 21
11
  0
LINE
  8
0
 10
4
 20
11
 11
3.5
 21
11
  0
LINE
  8
0
 10
3.5
 20
11
 11
3.5
 21
11.5
  0
LINE
  8
0
 10
3.5
 20
11.5
 11
3
 21
11.5
  0
LINE
  8
0
 10
3
 20
11.5
 11
3
 21
11
  0
LINE
  8
0
 10
3
 20
11
 11
2.5
 21
11
  0
LINE
  8
0
 10
2.5
 20
11
 11
2.5
 21
11.5
  0
LINE
  8
0
 10
2.5
 20
11.5
 11
2
 21
11.5
  0
LINE
  8
0
 10
2
 20
11.5
 11
2
 21
11
  0
LINE
  8
0
 10
2
 20
11
 11
1.5
 21
11
  0
LINE
  8
0
 10
1.5
 20
11
 11
1.5
 21
11.5
  0
LINE
  8
0
 10
1.5
 20
11.5
 11
1
 21
11.5
  0
LINE
  8
0
 10
1
 20
11.5
 11
1
 21
11
  0
LINE
  8
0
 10
1
 20
11
 11
0.5
 21
11
  0
LINE
  8
0
 10
0.5
 20
11
 11
0.5
 21
11.5
  0
LINE
  8
0
 10
0.5
 20
11.5
 11
0
 21
11.5
  0
LINE
  8
0
 10
0
 20
11.5
 11
0
 21
10.5
  0
LINE
  8
0
 10
0
 20
10.5
 11
-0.5
 21
10.5
  0
LINE
  8
0
 10
-0.5
 20
10.5
 11
-0.5
 21
10
  0
LINE
  8
0
 10
-0.5
 20
10
 11
0
 21
10
  0
LINE
  8
0
 10
0
 20
10
 11
0
 21
9.5
  0
LINE
  8
0
 10
0
 20
9.5
 11
-0.5
 21
9.5
  0
LINE
  8
0
 10
-0.5
 20
9.5
 11
-0.5
 21
9
  0
LINE
  8
0
 10
-0.5
 20
9
 11
0
 21
9
  0
LINE
  8
0
 10
0
 20
9
 11
0
 21
8.5
  0
LINE
  8
0
 10
0
 20
8.5
 11
-0.5
 21
8.5
  0
LINE
  8
0
 10
-0.5
 20
8.5
 11
-0.5
 21
8
  0
LINE
  8
0
 10
-0.5
 20
8
 11
0
 21
8
  0
LINE
  8
0
 10
0
 20
8
 11
0
 21
7.5
  0
LINE
  8
0
 10
0
 20
7.5
 11
-0.5
 21
7.5
  0
LINE
  8
0
 10
-0.5
 20
7.5
 11
-0.5
 21
7
  0
LINE
  8
0
 10
-0.5
 20
7
 11
0
 21
7
  0
LINE
  8
0
 10
0
 20
7
 11
0
 21
6.5
  0
LINE
  8
0
 10
0
 20
6.5
 11
-0.5
 21
6.5
  0
LINE
  8
0
 10
-0.5
 20
6.5
 11
-0.5
 21
6
  0
LINE
  8
0
 10
-0.5
 20
6
 11
0
 21
6
  0
LINE
  8
0
 10
0
 20
6
 11
0
 21
5.5
  0
LINE
  8
0
 10
0
 20
5.5
 11
-0.5
 21
5.5
  0
LINE
  8
0
 10
-0.5
 20
5.5
 11
-0.5
 21
5
  0
LINE
  8
0
 10
-0.5
 20
5
 11
0
 21
5
  0
LINE
  8
0
 10
0
 20
5
 11
0
 21
4.5
  0
LINE
  8
0
 10
0
 20
4.5
 11
-0.5
 21
4.5
  0
LINE
  8
0
 10
-0.5
 20
4.5
 11
-0.5
 21
4
  0
LINE
  8
0
 10
-0.5
 20
4
 11
0
 21
4
  0
LINE
  8
0
 10
0
 20
4
 11
0
 21
3.5
  0
LINE
  8
0
 10
0
 20
3.5
 11
-0.5
 21
3.5
  0
LINE
  8
0
 10
-0.5
 20
3.5
 11
-0.5
 21
3
  0
LINE
  8
0
 10
-0.5
 20
3
 11
0
 21
3
  0
LINE
  8
0
 10
0
 20
3
 11
0
 21
2.5
  0
LINE
  8
0
 10
0
 20
2.5
 11
-0.5
 21
2.5
  0
LINE
  8
0
 10
-0.5
 20
2.5
 11
-0.5
 21
2
  0
LINE
  8
0
 10
-0.5
 20
2
 11
0
 21
2
  0
LINE
  8
0
 10
0
 20
2
 11
0
 21
1.5
  0
LINE
  8
0
 10
0
 20
1.5
 11
-0.5
 21
1.5
  0
LINE
  8
0
 10
-0.5
 20
1.5
 11
-0.5
 21
1
  0
LINE
  8
0
 10
-0.5
 20
1
 11
0
 21
1
  0
LINE
  8
0
 10
0
 20
1
 11
0
 21
0.5
  0
LINE
  8
0
 10
0
 20
0.5
 11
-0.5
 21
0.5
  0
LINE
  8
0
 10
-0.5
 20
0.5
 11
-0.5
 21
0
  0
LINE
  8
0
 10
-0.5
 20
0
 11
0.5
 21
0
  0
LINE
  8
0
 10
0.5
 20
0
 11
0.5
 21
-0.5
  0
LINE
  8
0
 10
0.5
 20
-0.5
 11
1
 21
-0.5
  0
LINE
  8
0
 10
1
 20
-0.5
 11
1
 21
0
  0
LINE
  8
0
 10
5.21744
 20
1.00887
 11
4.93599
 21
1.03548
  0
LINE
  8
0
 10
4.93599
 20
1.03548
 11
4.65678
 21
1.0797
  0
LINE
  8
0
 10
4.65678
 20
1.0797
 11
4.38089
 21
1.14137
  0
LINE
  8
0
 10
4.38089
 20
1.14137
 11
4.10942
 21
1.22025
  0
LINE
  8
0
 10
4.10942
 20
1.22025
 11
3.84343
 21
1.31599
  0
LINE
  8
0
 10
3.84343
 20
1.31599
 11
3.58398
 21
1.42827
  0
LINE
  8
0
 10
3.58398
 20
1.42827
 11
3.33211
 21
1.55661
  0
LINE
  8
0
 10
3.33211
 20
1.55661
 11
3.08878
 21
1.70052
  0
LINE
  8
0
 10
3.08878
 20
1.70052
 11
2.85497
 21
1.85942
  0
LINE
  8
0
 10
2.85497
 20
1.85942
 11
2.63159
 21
2.03268
  0
LINE
  8
0
 10
2.63159
 20
2.03268
 11
2.41953
 21
2.21964
  0
LINE
  8
0
 10
2.41953
 20
2.21964
 11
2.21964
 21
2.41953
  0
LINE
  8
0
 10
2.21964
 20
2.41953
 11
2.03268
 21
2.63159
  0
LINE
  8
0
 10
2.03268
 20
2.63159
 11
1.85942
 21
2.85497
  0
LINE
  8
0
 10
1.85942
 20
2.85497
 11
1.70052
 21
3.08878
  0
LINE
  8
0
 10
1.70052
 20
3.08878
 11
1.55661
 21
3.33211
  0
LINE
  8
0
 10
1.55661
 20
3.33211
 11
1.42827
 21
3.58398
  0
LINE
  8
0
 10
1.42827
 20
3.58398
 11
1.31599
 21
3.84343
  0
LINE
  8
0
 10
1.31599
 20
3.84343
 11
1.22025
 21
4.10942
  0
LINE
  8
0
 10
1.22025
 20
4.10942
 11
1.14137
 21
4.38089
  0
LINE
  8
0
 10
1.14137
 20
4.38089
 11
1.0797
 21
4.65678
  0
LINE
  8
0
 10
1.0797
 20
4.65678
 11
1.03548
 21
4.93599
  0
LINE
  8
0
 10
1.03548
 20
4.93599
 11
1.00887
 21
5.21744
  0
LINE
  8
0
 10
1.00887
 20
5.21744
 11
1
 21
5.5
  0
LINE
  8
0
 10
1
 20
5.5
 11
1.00887
 21
5.78255
  0
LINE
  8
0
 10
1.00887
 20
5.78255
 11
1.03548
 21
6.064
  0
LINE
  8
0
 10
1.03548
 20
6.064
 11
1.0797
 21
6.3432
  0
LINE
  8
0
 10
1.0797
 20
6.3432
 11
1.14137
 21
6.61909
  0
LINE
  8
0
 10
1.14137
 20
6.61909
 11
1.22025
 21
6.89056
  0
LINE
  8
0
 10
1.22025
 20
6.89056
 11
1.31599
 21
7.15656
  0
LINE
  8
0
 10
1.31599
 20
7.15656
 11
1.42827
 21
7.416
  0
LINE
  8
0
 10
1.42827
 20
7.416
 11
1.55661
 21
7.66788
  0
LINE
  8
0
 10
1.55661
 20
7.66788
 11
1.70052
 21
7.91121
  0
LINE
  8
0
 10
1.70052
 20
7.91121
 11
1.85942
 21
8.14502
  0
LINE
  8
0
 10
1.85942
 20
8.14502
 11
2.03268
 21
8.36839
  0
LINE
  8
0
 10
2.03268
 20
8.36839
 11
2.21964
 21
8.58046
  0
LINE
  8
0
 10
2.21964
 20
8.58046
 11
2.41953
 21
8.78035
  0
LINE
  8
0
 10
2.41953
 20
8.78035
 11
2.63159
 21
8.9673
  0
LINE
  8
0
 10
2.63159
 20
8.9673
 11
2.85497
 21
9.14056
  0
LINE
  8
0
 10
2.85497
 20
9.14056
 11
3.08878
 21
9.29947
  0
LINE
  8
0
 10
3.08878
 20
9.29947
 11
3.33211
 21
9.44337
  0
LINE
  8
0
 10
3.33211
 20
9.44337
 11
3.58398
 21
9.57172
  0
LINE
  8
0
 10
3.58398
 20
9.57172
 11
3.84343
 21
9.68399
  0
LINE
  8
0
 10
3.84343
 20
9.68399
 11
4.10942
 21
9.77974
  0
LINE
  8
0
 10
4.10942
 20
9.77974
 11
4.38089
 21
9.85861
  0
LINE
  8
0
 10
4.38089
 20
9.85861
 11
4.65678
 21
9.92029
  0
LINE
  8
0
 10
4.65678
 20
9.92029
 11
4.93599
 21
9.96451
  0
LINE
  8
0
 10
4.93599
 20
9.96451
 11
5.21744
 21
9.99112
  0
LINE
  8
0
 10
5.21744
 20
9.99112
 11
5.5
 21
10
  0
LINE
  8
0
 10
5.5
 20
10
 11
5.78255
 21
9.99112
  0
LINE
  8
0
 10
5.78255
 20
9.99112
 11
6.064
 21
9.96451
  0
LINE
  8
0
 10
6.064
 20
9.96451
 11
6.3432
 21
9.92029
  0
LINE
  8
0
 10
6.3432
 20
9.92029
 11
6.61909
 21
9.85861
  0
LINE
  8
0
 10
6.61909
 20
9.85861
 11
6.89056
 21
9.77974
  0
LINE
  8
0
 10
6.89056
 20
9.77974
 11
7.15656
 21
9.68399
  0
LINE
  8
0
 10
7.15656
 20
9.68399
 11
7.416
 21
9.57172
  0
LINE
  8
0
 10
7.416
 20
9.57172
 11
7.66788
 21
9.44337
  0
LINE
  8
0
 10
7.66788
 20
9.44337
 11
7.91121
 21
9.29947
  0
LINE
  8
0
 10
7.91121
 20
9.29947
 11
8.14502
 21
9.14056
  0
LINE
  8
0
 10
8.14502
 20
9.14056
 11
8.36839
 21
8.9673
  0
LINE
  8
0
 10
8.36839
 20
8.9673
 11
8.58046
 21
8.78035
  0
LINE
  8
0
 10
8.58046
 20
8.78035
 11
8.78035
 21
8.58046
  0
LINE
  8
0
 10
8.78035
 20
8.58046
 11
8.9673
 21
8.36839
  0
LINE
  8
0
 10
8.9673
 20
8.36839
 11
9.14056
 21
8.14502
  0
LINE
  8
0
 10
9.14056
 20
8.14502
 11
9.29947
 21
7.91121
  0
LINE
  8
0
 10
9.29947
 20
7.91121
 11
9.44337
 21
7.66788
  0
LINE
  8
0
 10
9.44337
 20
7.66788
 11
9.57172
 21
7.416
  0
LINE
  8
0
 10
9.57172
 20
7.416
 11
9.68399
 21
7.15656
  0
LINE
  8
0
 10
9.68399
 20
7.15656
 11
9.77974
 21
6.89056
  0
LINE
  8
0
 10
9.77974
 20
6.89056
 11
9.85861
 21
6.61909
  0
LINE
  8
0
 10
9.85861
 20
6.61909
 11
9.92029
 21
6.3432
  0
LINE
  8
0
 10
9.92029
 20
6.3432
 11
9.96451
 21
6.064
  0
LINE
  8
0
 10
9.96451
 20
6.064
 11
9.99112
 21
5.78255
  0
LINE
  8
0
 10
9.99112
 20
5.78255
 11
10
 21
5.5
  0
LINE
  8
0
 10
10
 20
5.5
 11
9.99112
 21
5.21744
  0
LINE
  8
0
 10
9.99112
 20
5.21744
 11
9.96451
 21
4.93599
  0
LINE
  8
0
 10
9.96451
 20
4.93599
 11
9.92029
 21
4.65678
  0
LINE
  8
0
 10
9.92029
 20
4.65678
 11
9.85861
 21
4.38089
  0
LINE
  8
0
 10
9.85861
 20
4.38089
 11
9.77974
 21
4.10942
  0
LINE
  8
0
 10
9.77974
 20
4.10942
 11
9.68399
 21
3.84343
  0
LINE
  8
0
 10
9.68399
 20
3.84343
 11
9.57172
 21
3.58398
  0
LINE
  8
0
 10
9.57172
 20
3.58398
 11
9.44337
 21
3.33211
  0
LINE
  8
0
 10
9.44337
 20
3.33211
 11
9.29947
 21
3.08878
  0
LINE
  8
0
 10
9.29947
 20
3.08878
 11
9.14056
 21
2.85497
  0
LINE
  8
0
 10
9.14056
 20
2.85497
 11
8.9673
 21
2.63159
  0
LINE
  8
0
 10
8.9673
 20
2.63159
 11
8.78035
 21
2.41953
  0
LINE
  8
0
 10
8.78035
 20
2.41953
 11
8.58046
 21
2.21964
  0
LINE
  8
0
 10
8.58046
 20
2.21964
 11
8.36839
 21
2.03268
  0
LINE
  8
0
 10
8.36839
 20
2.03268
 11
8.14502
 21
1.85942
  0
LINE
  8
0
 10
8.14502
 20
1.85942
 11
7.91121
 21
1.70052
  0
LINE
  8
0
 10
7.91121
 20
1.70052
 11
7.66788
 21
1.55661
  0
LINE
  8
0
 10
7.66788
 20
1.55661
 11
7.416
 21
1.42827
  0
LINE
  8
0
 10
7.416
 20
1.42827
 11
7.15656
 21
1.31599
  0
LINE
  8
0
 10
7.15656
 20
1.31599
 11
6.89056
 21
1.22025
  0
LINE
  8
0
 10
6.89056
 20
1.22025
 11
6.61909
 21
1.14137
  0
LINE
  8
0
 10
6.61909
 20
1.14137
 11
6.3432
 21
1.0797
  0
LINE
  8
0
 10
6.3432
 20
1.0797
 11
6.064
 21
1.03548
  0
LINE
  8
0
 10
6.064
 20
1.03548
 11
5.78255
 21
1.00887
  0
LINE
  8
0
 10
5.78255
 20
1.00887
 11
5.5
 21
1
  0
LINE
  8
0
 10
5.5
 20
1
 11
5.21744
 21
1.00887
  0
LINE
  8
0
 10
13.5
 20
0
 11
14
 21
0
  0
LINE
  8
0
 10
14
 20
0
 11
14
 21
-0.5
  0
LINE
  8
0
 10
14
 20
-0.5
 11
14.5
 21
-0.5
  0
LINE
  8
0
 10
14.5
 20
-0.5
 11
14.5
 21
0
  0
LINE
  8
0
 10
14.5
 20
0
 11
15
 21
0
  0
LINE
  8
0
 10
15
 20
0
 11
15
 21
-0.5
  0
LINE
  8
0
 10
15
 20
-0.5
 11
15.5
 21
-0.5
  0
LINE
  8
0
 10
15.5
 20
-0.5
 11
15.5
 21
0
  0
LINE
  8
0
 10
15.5
 20
0
 11
16
 21
0
  0
LINE
  8
0
 10
16
 20
0
 11
16
 21
-0.5
  0
LINE
  8
0
 10
16
 20
-0.5
 11
16.5
 21
-0.5
  0
LINE
  8
0
 10
16.5
 20
-0.5
 11
16.5
 21
0
  0
LINE
  8
0
 10
16.5
 20
0
 11
17
 21
0
  0
LINE
  8
0
 10
17
 20
0
 11
17
 21
-0.5
  0
LINE
  8
0
 10
17
 20
-0.5
 11
17.5
 21
-0.5
  0
LINE
  8
0
 10
17.5
 20
-0.5
 11
17.5
 21
0
  0
LINE
  8
0
 10
17.5
 20
0
 11
18
 21
0
  0
LINE
  8
0
 10
18
 20
0
 11
18
 21
-0.5
  0
LINE
  8
0
 10
18
 20
-0.5
 11
18.5
 21
-0.5
  0
LINE
  8
0
 10
18.5
 20
-0.5
 11
18.5
 21
0
  0
LINE
  8
0
 10
18.5
 20
0
 11
19
 21
0
  0
LINE
  8
0
 10
19
 20
0
 11
19
 21
-0.5
  0
LINE
  8
0
 10
19
 20
-0.5
 11
19.5
 21
-0.5
  0
LINE
  8
0
 10
19.5
 20
-0.5
 11
19.5
 21
0
  0
LINE
  8
0
 10
19.5
 20
0
 11
20
 21
0
  0
LINE
  8
0
 10
20
 20
0
 11
20
 21
-0.5
  0
LINE
  8
0
 10
20
 20
-0.5
 11
20.5
 21
-0.5
  0
LINE
  8
0
 10
20.5
 20
-0.5
 11
20.5
 21
0
  0
LINE
  8
0
 10
20.5
 20
0
 11
21
 21
0
  0
LINE
  8
0
 10
21
 20
0
 11
21
 21
-0.5
  0
LINE
  8
0
 10
21
 20
-0.5
 11
21.5
 21
-0.5
  0
LINE
  8
0
 10
21.5
 20
-0.5
 11
21.5
 21
0
  0
LINE
  8
0
 10
21.5
 20
0
 11
22
 21
0
  0
LINE
  8
0
 10
22
 20
0
 11
22
 21
-0.5
  0
LINE
  8
0
 10
22
 20
-0.5
 11
22.5
 21
-0.5
  0
LINE
  8
0
 10
22.5
 20
-0.5
 11
22.5
 21
0
  0
LINE
  8
0
 10
22.5
 20
0
 11
23
 21
0
  0
LINE
  8
0
 10
23
 20
0
 11
23
 21
-0.5
  0
LINE
  8
0
 10
23
 20
-0.5
 11
23.5
 21
-0.5
  0
LINE
  8
0
 10
23.5
 20
-0.5
 11
23.5
 21
0.5
  0
LINE
  8
0
 10
23.5
 20
0.5
 11
24
 21
0.5
  0
LINE
  8
0
 10
24
 20
0.5
 11
24
 21
1
  0
LINE
  8
0
 10
24
 20
1
 11
23.5
 21
1
  0
LINE
  8
0
 10
23.5
 20
1
 11
23.5
 21
1.5
  0
LINE
  8
0
 10
23.5
 20
1.5
 11
24
 21
1.5
  0
LINE
  8
0
 10
24
 20
1.5
 11
24
 21
2
  0
LINE
  8
0
 10
24
 20
2
 11
23.5
 21
2
  0
LINE
  8
0
 10
23.5
 20
2
 11
23.5
 21
2.5
  0
LINE
  8
0
 10
23.5
 20
2.5
 11
24
 21
2.5
  0
LINE
  8
0
 10
24
 20
2.5
 11
24
 21
3
  0
LINE
  8
0
 10
24
 20
3
 11
23.5
 21
3
  0
LINE
  8
0
 10
23.5
 20
3
 11
23.5
 21
3.5
  0
LINE
  8
0
 10
23.5
 20
3.5
 11
24
 21
3.5
  0
LINE
  8
0
 10
24
 20
3.5
 11
24
 21
4
  0
LINE
  8
0
 10
24
 20
4
 11
23.5
 21
4
  0
LINE
  8
0
 10
23.5
 20
4
 11
23.5
 21
4.5
  0
LINE
  8
0
 10
23.5
 20
4.5
 11
24
 21
4.5
  0
LINE
  8
0
 10
24
 20
4.5
 11
24
 21
5
  0
LINE
  8
0
 10
24
 20
5
 11
23.5
 21
5
  0
LINE
  8
0
 10
23.5
 20
5
 11
23.5
 21
5.5
  0
LINE
  8
0
 10
23.5
 20
5.5
 11
24
 21
5.5
  0
LINE
  8
0
 10
24
 20
5.5
 11
24
 21
6
  0
LINE
  8
0
 10
24
 20
6
 11
23.5
 21
6
  0
LINE
  8
0
 10
23.5
 20
6
 11
23.5
 21
6.5
  0
LINE
  8
0
 10
23.5
 20
6.5
 11
24
 21
6.5
  0
LINE
  8
0
 10
24
 20
6.5
 11
24
 21
7
  0
LINE
  8
0
 10
24
 20
7
 11
23.5
 21
7
  0
LINE
  8
0
 10
23.5
 20
7
 11
23.5
 21
7.5
  0
LINE
  8
0
 10
23.5
 20
7.5
 11
23
 21
7.5
  0
LINE
  8
0
 10
23
 20
7.5
 11
23
 21
7
  0
LINE
  8
0
 10
23
 20
7
 11
22.5
 21
7
  0
LINE
  8
0
 10
22.5
 20
7
 11
22.5
 21
7.5
  0
LINE
  8
0
 10
22.5
 20
7.5
 11
22
 21
7.5
  0
LINE
  8
0
 10
22
 20
7.5
 11
22
 21
7
  0
LINE
  8
0
 10
22
 20
7
 11
21.5
 21
7
  0
LINE
  8
0
 10
21.5
 20
7
 11
21.5
 21
7.5
  0
LINE
  8
0
 10
21.5
 20
7.5
 11
21
 21
7.5
  0
LINE
  8
0
 10
21
 20
7.5
 11
21
 21
7
  0
LINE
  8
0
 10
21
 20
7
 11
20.5
 21
7
  0
LINE
  8
0
 10
20.5
 20
7
 11
20.5
 21
7.5
  0
LINE
  8
0
 10
20.5
 20
7.5
 11
20
 21
7.5
  0
LINE
  8
0
 10
20
 20
7.5
 11
20
 21
7
  0
LINE
  8
0
 10
20
 20
7
 11
19.5
 21
7
  0
LINE
  8
0
 10
19.5
 20
7
 11
19.5
 21
7.5
  0
LINE
  8
0
 10
19.5
 20
7.5
 11
19
 21
7.5
  0
LINE
  8
0
 10
19
 20
7.5
 11
19
 21
7
  0
LINE
  8
0
 10
19
 20
7
 11
18.5
 21
7
  0
LINE
  8
0
 10
18.5
 20
7
 11
18.5
 21
7.5
  0
LINE
  8
0
 10
18.5
 20
7.5
 11
18
 21
7.5
  0
LINE
  8
0
 10
18
 20
7.5
 11
18
 21
7
  0
LINE
  8
0
 10
18
 20
7
 11
17.5
 21
7
  0
LINE
  8
0
 10
17.5
 20
7
 11
17.5
 21
7.5
  0
LINE
  8
0
 10
17.5
 20
7.5
 11
17
 21
7.5
  0
LINE
  8
0
 10
17
 20
7.5
 11
17
 21
7
  0
LINE
  8
0
 10
17
 20
7
 11
16.5
 21
7
  0
LINE
  8
0
 10
16.5
 20
7
 11
16.5
 21
7.5
  0
LINE
  8
0
 10
16.5
 20
7.5
 11
16
 21
7.5
  0
LINE
  8
0
 10
16
 20
7.5
 11
16
 21
7
  0
LINE
  8
0
 10
16
 20
7
 11
15.5
 21
7
  0
LINE
  8
0
 10
15.5
 20
7
 11
15.5
 21
7.5
  0
LINE
  8
0
 10
15.5
 20
7.5
 11
15
 21
7.5
  0
LINE
  8
0
 10
15
 20
7.5
 11
15
 21
7
  0
LINE
  8
0
 10
15
 20
7
 11
14.5
 21
7
  0
LINE
  8
0
 10
14.5
 20
7
 11
14.5
 21
7.5
  0
LINE
  8
0
 10
14.5
 20
7.5
 11
14
 21
7.5
  0
LINE
  8
0
 10
14
 20
7.5
 11
14
 21
7
  0
LINE
  8
0
 10
14
 20
7
 11
13.5
 21
7
  0
LINE
  8
0
 10
13.5
 20
7
 11
13.5
 21
7.5
  0
LINE
  8
0
 10
13.5
 20
7.5
 11
13
 21
7.5
  0
LINE
  8
0
 10
13
 20
7.5
 11
13
 21
7
  0
LINE
  8
0
 10
13
 20
7
 11
12
 21
7
  0
LINE
  8
0
 10
12
 20
7
 11
12
 21
6.5
  0
LINE
  8
0
 10
12
 20
6.5
 11
12.5
 21
6.5
  0
LINE
  8
0
 10
12.5
 20
6.5
 11
12.5
 21
6
  0
LINE
  8
0
 10
12.5
 20
6
 11
12
 21
6
  0
LINE
  8
0
 10
12
 20
6
 11
12
 21
5.5
  0
LINE
  8
0
 10
12
 20
5.5
 11
12.5
 21
5.5
  0
LINE
  8
0
 10
12.5
 20
5.5
 11
12.5
 21
5
  0
LINE
  8
0
 10
12.5
 20
5
 11
12
 21
5
  0
LINE
  8
0
 10
12
 20
5
 11
12
 21
4.5
  0
LINE
  8
0
 10
12
 20
4.5
 11
12.5
 21
4.5
  0
LINE
  8
0
 10
12.5
 20
4.5
 11
12.5
 21
4
  0
LINE
  8
0
 10
12.5
 20
4
 11
12
 21
4
  0
LINE
  8
0
 10
12
 20
4
 11
12
 21
3.5
  0
LINE
  8
0
 10
12
 20
3.5
 11
12.5
 21
3.5
  0
LINE
  8
0
 10
12.5
 20
3.5
 11
12.5
 21
3
  0
LINE
  8
0
 10
12.5
 20
3
 11
12
 21
3
  0
LINE
  8
0
 10
12
 20
3
 11
12
 21
2.5
  0
LINE
  8
0
 10
12
 20
2.5
 11
12.5
 21
2.5
  0
LINE
  8
0
 10
12.5
 20
2.5
 11
12.5
 21
2
  0
LINE
  8
0
 10
12.5
 20
2
 11
12
 21
2
  0
LINE
  8
0
 10
12
 20
2
 11
12
 21
1.5
  0
LINE
  8
0
 10
12
 20
1.5
 11
12.5
 21
1.5
  0
LINE
  8
0
 10
12.5
 20
1.5
 11
12.5
 21
1
  0
LINE
  8
0
 10
12.5
 20
1
 11
12
 21
1
  0
LINE
  8
0
 10
12
 20
1
 11
12
 21
0.5
  0
LINE
  8
0
 10
12
 20
0.5
 11
12.5
 21
0.5
  0
LINE
  8
0
 10
12.5
 20
0.5
 11
12.5
 21
0
  0
LINE
  8
0
 10
12.5
 20
0
 11
13
 21
0
  0
LINE
  8
0
 10
13
 20
0
 11
13
 21
-0.5
  0
LINE
  8
0
 10
13
 20
-0.5
 11
13.5
 21
-0.5
  0
LINE
  8
0
 10
13.5
 20
-0.5
 11
13.5
 21
0
  0
ENDSEC
  0
SECTION
  2
OBJECTS
  0
DICTIONARY
  0
ENDSEC
  0
EOF
