solid OpenSCAD_Model
  facet normal 1 0 0
    outer loop
      vertex 0.75 0.299999 0.599999
      vertex 0.75 0 0.5
      vertex 0.75 0.299999 0.5
    endloop
  endfacet
  facet normal 1 0 0
    outer loop
      vertex 0.75 0 0.5
      vertex 0.75 -0.4 0.599999
      vertex 0.75 0 0.2
    endloop
  endfacet
  facet normal 1 -0 0
    outer loop
      vertex 0.75 -0.4 0.599999
      vertex 0.75 0 0.5
      vertex 0.75 0.299999 0.599999
    endloop
  endfacet
  facet normal 1 0 0
    outer loop
      vertex 0.75 0.799999 0.2
      vertex 0.75 0 0.2
      vertex 0.75 0.799999 0.0999994
    endloop
  endfacet
  facet normal 1 0 0
    outer loop
      vertex 0.75 1.85 0.0999994
      vertex 0.75 2.05 0.25
      vertex 0.75 1.85 0.25
    endloop
  endfacet
  facet normal 1 0 0
    outer loop
      vertex 0.75 2.05 0.25
      vertex 0.75 1.85 0.0999994
      vertex 0.75 2.05 0
    endloop
  endfacet
  facet normal 1 -0 0
    outer loop
      vertex 0.75 0.799999 0.0999994
      vertex 0.75 2.05 0
      vertex 0.75 1.85 0.0999994
    endloop
  endfacet
  facet normal 1 0 0
    outer loop
      vertex 0.75 0.799999 0.0999994
      vertex 0.75 -0.4 0
      vertex 0.75 2.05 0
    endloop
  endfacet
  facet normal 1 0 0
    outer loop
      vertex 0.75 0 0.2
      vertex 0.75 -0.4 0
      vertex 0.75 0.799999 0.0999994
    endloop
  endfacet
  facet normal 1 0 0
    outer loop
      vertex 0.75 -0.4 0
      vertex 0.75 0 0.2
      vertex 0.75 -0.4 0.599999
    endloop
  endfacet
  facet normal -0 0 1
    outer loop
      vertex 0 1.85 0.0999994
      vertex 0.75 0.799999 0.0999994
      vertex 0.75 1.85 0.0999994
    endloop
  endfacet
  facet normal 0 0 1
    outer loop
      vertex 0.75 0.799999 0.0999994
      vertex 0 1.85 0.0999994
      vertex 0 0.799999 0.0999994
    endloop
  endfacet
  facet normal 0 0 -1
    outer loop
      vertex 0 -0.4 0
      vertex 0.75 2.05 0
      vertex 0.75 -0.4 0
    endloop
  endfacet
  facet normal -0 0 -1
    outer loop
      vertex 0.75 2.05 0
      vertex 0 -0.4 0
      vertex 0 2.05 0
    endloop
  endfacet
  facet normal -1 0 0
    outer loop
      vertex 0 2.05 0
      vertex 0 1.85 0.0999994
      vertex 0 2.05 0.25
    endloop
  endfacet
  facet normal -1 0 0
    outer loop
      vertex 0 2.05 0
      vertex 0 0.799999 0.0999994
      vertex 0 1.85 0.0999994
    endloop
  endfacet
  facet normal -1 0 0
    outer loop
      vertex 0 0.799999 0.0999994
      vertex 0 0 0.2
      vertex 0 0.799999 0.2
    endloop
  endfacet
  facet normal -1 0 0
    outer loop
      vertex 0 -0.4 0.599999
      vertex 0 0 0.2
      vertex 0 -0.4 0
    endloop
  endfacet
  facet normal -1 -0 0
    outer loop
      vertex 0 0.799999 0.0999994
      vertex 0 -0.4 0
      vertex 0 0 0.2
    endloop
  endfacet
  facet normal -1 0 0
    outer loop
      vertex 0 -0.4 0
      vertex 0 0.799999 0.0999994
      vertex 0 2.05 0
    endloop
  endfacet
  facet normal -1 -0 0
    outer loop
      vertex 0 2.05 0.25
      vertex 0 1.85 0.0999994
      vertex 0 1.85 0.25
    endloop
  endfacet
  facet normal -1 0 0
    outer loop
      vertex 0 0 0.5
      vertex 0 0.299999 0.599999
      vertex 0 0.299999 0.5
    endloop
  endfacet
  facet normal -1 0 0
    outer loop
      vertex 0 0 0.5
      vertex 0 -0.4 0.599999
      vertex 0 0.299999 0.599999
    endloop
  endfacet
  facet normal -1 0 0
    outer loop
      vertex 0 0 0.2
      vertex 0 -0.4 0.599999
      vertex 0 0 0.5
    endloop
  endfacet
  facet normal 0 1 -0
    outer loop
      vertex 0.75 2.05 0
      vertex 0 2.05 0.25
      vertex 0.75 2.05 0.25
    endloop
  endfacet
  facet normal 0 1 0
    outer loop
      vertex 0 2.05 0.25
      vertex 0.75 2.05 0
      vertex 0 2.05 0
    endloop
  endfacet
  facet normal -0 0 1
    outer loop
      vertex 0 2.05 0.25
      vertex 0.75 1.85 0.25
      vertex 0.75 2.05 0.25
    endloop
  endfacet
  facet normal 0 0 1
    outer loop
      vertex 0.75 1.85 0.25
      vertex 0 2.05 0.25
      vertex 0 1.85 0.25
    endloop
  endfacet
  facet normal 0 -1 0
    outer loop
      vertex 0 1.85 0.0999994
      vertex 0.75 1.85 0.25
      vertex 0 1.85 0.25
    endloop
  endfacet
  facet normal 0 -1 -0
    outer loop
      vertex 0.75 1.85 0.25
      vertex 0 1.85 0.0999994
      vertex 0.75 1.85 0.0999994
    endloop
  endfacet
  facet normal -0 0 1
    outer loop
      vertex 0 0.799999 0.2
      vertex 0.75 0 0.2
      vertex 0.75 0.799999 0.2
    endloop
  endfacet
  facet normal 0 0 1
    outer loop
      vertex 0.75 0 0.2
      vertex 0 0.799999 0.2
      vertex 0 0 0.2
    endloop
  endfacet
  facet normal 0 1 -0
    outer loop
      vertex 0.75 0.799999 0.0999994
      vertex 0 0.799999 0.2
      vertex 0.75 0.799999 0.2
    endloop
  endfacet
  facet normal 0 1 0
    outer loop
      vertex 0 0.799999 0.2
      vertex 0.75 0.799999 0.0999994
      vertex 0 0.799999 0.0999994
    endloop
  endfacet
  facet normal 0 1 -0
    outer loop
      vertex 0.75 0 0.2
      vertex 0 0 0.5
      vertex 0.75 0 0.5
    endloop
  endfacet
  facet normal 0 1 0
    outer loop
      vertex 0 0 0.5
      vertex 0.75 0 0.2
      vertex 0 0 0.2
    endloop
  endfacet
  facet normal -0 0 1
    outer loop
      vertex 0 0.299999 0.599999
      vertex 0.75 -0.4 0.599999
      vertex 0.75 0.299999 0.599999
    endloop
  endfacet
  facet normal 0 0 1
    outer loop
      vertex 0.75 -0.4 0.599999
      vertex 0 0.299999 0.599999
      vertex 0 -0.4 0.599999
    endloop
  endfacet
  facet normal 0 -1 0
    outer loop
      vertex 0 -0.4 0
      vertex 0.75 -0.4 0.599999
      vertex 0 -0.4 0.599999
    endloop
  endfacet
  facet normal 0 -1 -0
    outer loop
      vertex 0.75 -0.4 0.599999
      vertex 0 -0.4 0
      vertex 0.75 -0.4 0
    endloop
  endfacet
  facet normal 0 0 -1
    outer loop
      vertex 0 0 0.5
      vertex 0.75 0.299999 0.5
      vertex 0.75 0 0.5
    endloop
  endfacet
  facet normal -0 0 -1
    outer loop
      vertex 0.75 0.299999 0.5
      vertex 0 0 0.5
      vertex 0 0.299999 0.5
    endloop
  endfacet
  facet normal 0 1 -0
    outer loop
      vertex 0.75 0.299999 0.5
      vertex 0 0.299999 0.599999
      vertex 0.75 0.299999 0.599999
    endloop
  endfacet
  facet normal 0 1 0
    outer loop
      vertex 0 0.299999 0.599999
      vertex 0.75 0.299999 0.5
      vertex 0 0.299999 0.5
    endloop
  endfacet
endsolid OpenSCAD_Model
