solid OpenSCAD_Model
  facet normal 1 -0 0
    outer loop
      vertex 2.7 0 2
      vertex 2.7 6.5 0
      vertex 2.7 6.5 2
    endloop
  endfacet
  facet normal 1 0 0
    outer loop
      vertex 2.7 6.5 0
      vertex 2.7 0 2
      vertex 2.7 0 0
    endloop
  endfacet
  facet normal 0 0 1
    outer loop
      vertex 2.7 6.5 2
      vertex 2.6 6.4 2
      vertex 2.7 0 2
    endloop
  endfacet
  facet normal 0 0 1
    outer loop
      vertex 2.7 6.5 2
      vertex 0.0999994 6.4 2
      vertex 2.6 6.4 2
    endloop
  endfacet
  facet normal 0 0 1
    outer loop
      vertex 0.0999994 6.4 2
      vertex 0 6.5 2
      vertex 0.0999994 0.0999994 2
    endloop
  endfacet
  facet normal -0 0 1
    outer loop
      vertex 0 6.5 2
      vertex 0.0999994 6.4 2
      vertex 2.7 6.5 2
    endloop
  endfacet
  facet normal -0 0 1
    outer loop
      vertex 2.6 0.0999994 2
      vertex 2.7 0 2
      vertex 2.6 6.4 2
    endloop
  endfacet
  facet normal -0 0 1
    outer loop
      vertex 0.0999994 0.0999994 2
      vertex 2.7 0 2
      vertex 2.6 0.0999994 2
    endloop
  endfacet
  facet normal 0 0 1
    outer loop
      vertex 0.0999994 0.0999994 2
      vertex 0 0 2
      vertex 2.7 0 2
    endloop
  endfacet
  facet normal 0 0 1
    outer loop
      vertex 0 0 2
      vertex 0.0999994 0.0999994 2
      vertex 0 6.5 2
    endloop
  endfacet
  facet normal 0 0 -1
    outer loop
      vertex 0 0 0
      vertex 2.7 6.5 0
      vertex 2.7 0 0
    endloop
  endfacet
  facet normal -0 0 -1
    outer loop
      vertex 2.7 6.5 0
      vertex 0 0 0
      vertex 0 6.5 0
    endloop
  endfacet
  facet normal -1 0 0
    outer loop
      vertex 0 0 0
      vertex 0 6.5 2
      vertex 0 6.5 0
    endloop
  endfacet
  facet normal -1 -0 0
    outer loop
      vertex 0 6.5 2
      vertex 0 0 0
      vertex 0 0 2
    endloop
  endfacet
  facet normal 0 1 -0
    outer loop
      vertex 2.7 6.5 0
      vertex 0 6.5 2
      vertex 2.7 6.5 2
    endloop
  endfacet
  facet normal 0 1 0
    outer loop
      vertex 0 6.5 2
      vertex 2.7 6.5 0
      vertex 0 6.5 0
    endloop
  endfacet
  facet normal 0 -1 0
    outer loop
      vertex 0 0 2
      vertex 0.849999 0 1.5
      vertex 2.7 0 2
    endloop
  endfacet
  facet normal 0 -1 0
    outer loop
      vertex 0 0 2
      vertex 0.849999 0 0.5
      vertex 0.849999 0 1.5
    endloop
  endfacet
  facet normal 0 -1 -0
    outer loop
      vertex 0.849999 0 0.5
      vertex 0 0 0
      vertex 1.85 0 0.5
    endloop
  endfacet
  facet normal 0 -1 0
    outer loop
      vertex 0 0 0
      vertex 0.849999 0 0.5
      vertex 0 0 2
    endloop
  endfacet
  facet normal 0 -1 0
    outer loop
      vertex 1.85 0 1.5
      vertex 2.7 0 2
      vertex 0.849999 0 1.5
    endloop
  endfacet
  facet normal 0 -1 0
    outer loop
      vertex 1.85 0 0.5
      vertex 2.7 0 2
      vertex 1.85 0 1.5
    endloop
  endfacet
  facet normal 0 -1 0
    outer loop
      vertex 1.85 0 0.5
      vertex 2.7 0 0
      vertex 2.7 0 2
    endloop
  endfacet
  facet normal 0 -1 0
    outer loop
      vertex 2.7 0 0
      vertex 1.85 0 0.5
      vertex 0 0 0
    endloop
  endfacet
  facet normal -1 0 0
    outer loop
      vertex 2.6 0.0999994 0.0999994
      vertex 2.6 6.4 2
      vertex 2.6 6.4 0.0999994
    endloop
  endfacet
  facet normal -1 -0 0
    outer loop
      vertex 2.6 6.4 2
      vertex 2.6 0.0999994 0.0999994
      vertex 2.6 0.0999994 2
    endloop
  endfacet
  facet normal -0 0 1
    outer loop
      vertex 0.0999994 6.4 0.0999994
      vertex 2.6 0.0999994 0.0999994
      vertex 2.6 6.4 0.0999994
    endloop
  endfacet
  facet normal 0 0 1
    outer loop
      vertex 2.6 0.0999994 0.0999994
      vertex 0.0999994 6.4 0.0999994
      vertex 0.0999994 0.0999994 0.0999994
    endloop
  endfacet
  facet normal 1 -0 0
    outer loop
      vertex 0.0999994 0.0999994 2
      vertex 0.0999994 6.4 0.0999994
      vertex 0.0999994 6.4 2
    endloop
  endfacet
  facet normal 1 0 0
    outer loop
      vertex 0.0999994 6.4 0.0999994
      vertex 0.0999994 0.0999994 2
      vertex 0.0999994 0.0999994 0.0999994
    endloop
  endfacet
  facet normal 0 -1 0
    outer loop
      vertex 0.0999994 6.4 0.0999994
      vertex 2.6 6.4 2
      vertex 0.0999994 6.4 2
    endloop
  endfacet
  facet normal 0 -1 -0
    outer loop
      vertex 2.6 6.4 2
      vertex 0.0999994 6.4 0.0999994
      vertex 2.6 6.4 0.0999994
    endloop
  endfacet
  facet normal 0 1 0
    outer loop
      vertex 2.6 0.0999994 2
      vertex 1.85 0.0999994 1.5
      vertex 0.0999994 0.0999994 2
    endloop
  endfacet
  facet normal 0 1 -0
    outer loop
      vertex 2.6 0.0999994 0.0999994
      vertex 1.85 0.0999994 1.5
      vertex 2.6 0.0999994 2
    endloop
  endfacet
  facet normal 0 1 0
    outer loop
      vertex 1.85 0.0999994 0.5
      vertex 2.6 0.0999994 0.0999994
      vertex 0.849999 0.0999994 0.5
    endloop
  endfacet
  facet normal 0 1 0
    outer loop
      vertex 1.85 0.0999994 1.5
      vertex 2.6 0.0999994 0.0999994
      vertex 1.85 0.0999994 0.5
    endloop
  endfacet
  facet normal 0 1 -0
    outer loop
      vertex 0.849999 0.0999994 1.5
      vertex 0.0999994 0.0999994 2
      vertex 1.85 0.0999994 1.5
    endloop
  endfacet
  facet normal 0 1 0
    outer loop
      vertex 0.0999994 0.0999994 0.0999994
      vertex 0.849999 0.0999994 1.5
      vertex 0.849999 0.0999994 0.5
    endloop
  endfacet
  facet normal 0 1 0
    outer loop
      vertex 0.849999 0.0999994 1.5
      vertex 0.0999994 0.0999994 0.0999994
      vertex 0.0999994 0.0999994 2
    endloop
  endfacet
  facet normal 0 1 0
    outer loop
      vertex 0.0999994 0.0999994 0.0999994
      vertex 0.849999 0.0999994 0.5
      vertex 2.6 0.0999994 0.0999994
    endloop
  endfacet
  facet normal -1 0 0
    outer loop
      vertex 1.85 0 0.5
      vertex 1.85 0.0999994 1.5
      vertex 1.85 0.0999994 0.5
    endloop
  endfacet
  facet normal -1 -0 0
    outer loop
      vertex 1.85 0.0999994 1.5
      vertex 1.85 0 0.5
      vertex 1.85 0 1.5
    endloop
  endfacet
  facet normal 0 0 -1
    outer loop
      vertex 0.849999 0 1.5
      vertex 1.85 0.0999994 1.5
      vertex 1.85 0 1.5
    endloop
  endfacet
  facet normal -0 0 -1
    outer loop
      vertex 1.85 0.0999994 1.5
      vertex 0.849999 0 1.5
      vertex 0.849999 0.0999994 1.5
    endloop
  endfacet
  facet normal -0 0 1
    outer loop
      vertex 0.849999 0.0999994 0.5
      vertex 1.85 0 0.5
      vertex 1.85 0.0999994 0.5
    endloop
  endfacet
  facet normal 0 0 1
    outer loop
      vertex 1.85 0 0.5
      vertex 0.849999 0.0999994 0.5
      vertex 0.849999 0 0.5
    endloop
  endfacet
  facet normal 1 -0 0
    outer loop
      vertex 0.849999 0 1.5
      vertex 0.849999 0.0999994 0.5
      vertex 0.849999 0.0999994 1.5
    endloop
  endfacet
  facet normal 1 0 0
    outer loop
      vertex 0.849999 0.0999994 0.5
      vertex 0.849999 0 1.5
      vertex 0.849999 0 0.5
    endloop
  endfacet
endsolid OpenSCAD_Model
